<svg width="1920" height="1080" viewBox="0 0 1920 1080" fill="none" xmlns="http://www.w3.org/2000/svg">
<rect width="1920" height="1080" fill="white"/>
<path d="M996.634 296.431H957.734C957.734 296.431 961.613 287.044 991.874 290.18C991.874 290.18 1006.95 273.34 1028.92 273.34C1029.35 269.364 1031.12 265.64 1033.97 262.763C1036.82 259.886 1040.57 258.021 1044.64 257.466C1059.65 254.631 1062.56 267.669 1062.56 267.669C1066.66 265.948 1071.07 265.061 1075.54 265.061C1080 265.061 1084.42 265.948 1088.52 267.669C1103.4 273.405 1100.38 290.137 1100.38 290.137C1100.38 290.137 1143.31 288.763 1150.69 296.431H1128.76" stroke="#263238" stroke-linecap="round" stroke-linejoin="round"/>
<path d="M1665.83 510.2H1496.13C1496.13 510.2 1503.16 493.295 1557.64 498.945C1557.64 498.945 1584.77 468.615 1624.36 468.615C1624.36 468.615 1625.68 444.987 1652.7 439.982C1679.72 434.977 1684.97 458.412 1684.97 458.412C1684.97 458.412 1704.93 448.101 1731.73 458.412C1758.54 468.722 1753.11 498.859 1753.11 498.859C1753.11 498.859 1830.45 496.388 1843.7 510.2H1804.49" stroke="#263238" stroke-linecap="round" stroke-linejoin="round"/>
<path d="M1556.49 714.84H1691.84C1691.84 714.84 1686.27 701.372 1642.8 705.861C1642.8 705.861 1621.14 681.675 1589.58 681.675C1589.58 681.675 1588.52 662.88 1566.99 658.842C1545.45 654.803 1541.24 673.534 1541.24 673.534C1541.24 673.534 1525.31 665.307 1503.95 673.534C1482.59 681.761 1486.89 705.754 1486.89 705.754C1486.89 705.754 1425.18 703.778 1414.62 714.797H1455.6" stroke="#263238" stroke-linecap="round" stroke-linejoin="round"/>
<path d="M1068.07 653.171H926.194C936.796 642.152 998.463 644.128 998.463 644.128C998.463 644.128 994.056 620.092 1015.52 611.908C1036.99 603.724 1052.81 611.908 1052.81 611.908C1052.81 611.908 1057 593.177 1078.56 597.216C1100.11 601.254 1101.15 620.049 1101.15 620.049C1132.73 620.049 1154.37 644.235 1154.37 644.235C1197.84 639.746 1203.44 653.214 1203.44 653.214H1187.59" stroke="#263238" stroke-linecap="round" stroke-linejoin="round"/>
<path d="M1250.65 446.684H1193.74C1193.74 446.684 1197.07 438.672 1222.87 441.357C1222.87 441.357 1235.72 426.987 1254.48 426.987C1254.85 423.593 1256.37 420.416 1258.8 417.961C1261.23 415.505 1264.44 413.911 1267.9 413.433C1280.71 411.027 1283.2 422.154 1283.2 422.154C1286.69 420.679 1290.46 419.918 1294.27 419.918C1298.08 419.918 1301.85 420.679 1305.35 422.154C1318.04 427.029 1315.46 441.314 1315.46 441.314C1315.46 441.314 1352.12 440.132 1358.4 446.684H1344.76" stroke="#263238" stroke-linecap="round" stroke-linejoin="round"/>
<path d="M1003.42 296.431H1009.9" stroke="#263238" stroke-linecap="round" stroke-linejoin="round"/>
<path d="M1045.74 296.345H1105.18" stroke="#263238" stroke-linecap="round" stroke-linejoin="round"/>
<path d="M1264.07 446.276H1272.2" stroke="#263238" stroke-linecap="round" stroke-linejoin="round"/>
<path d="M1246.61 178.398H1189.7C1189.7 178.398 1193.03 170.386 1218.84 173.071C1218.84 173.071 1231.69 158.701 1250.45 158.701C1250.81 155.308 1252.34 152.131 1254.77 149.675C1257.2 147.22 1260.4 145.626 1263.87 145.147C1276.67 142.742 1279.16 153.868 1279.16 153.868C1282.65 152.409 1286.4 151.656 1290.18 151.656C1293.97 151.656 1297.72 152.409 1301.2 153.868C1313.9 158.744 1311.32 173.028 1311.32 173.028C1311.32 173.028 1347.97 171.869 1354.25 178.398H1340.48" stroke="#263238" stroke-linecap="round" stroke-linejoin="round"/>
<path d="M1260.01 178.012H1268.17" stroke="#263238" stroke-linecap="round" stroke-linejoin="round"/>
<path d="M1175.71 653.171H1169.69" stroke="#263238" stroke-linecap="round" stroke-linejoin="round"/>
<path d="M1092.62 653.171H1113.34" stroke="#263238" stroke-linecap="round" stroke-linejoin="round"/>
<path d="M1466.62 714.926H1486.58" stroke="#263238" stroke-linecap="round" stroke-linejoin="round"/>
<path d="M1682.06 510.2H1697.84" stroke="#263238" stroke-linecap="round" stroke-linejoin="round"/>
<path d="M1105.56 458.734C1105.56 458.734 1060.44 485.219 1048.05 486.422C1035.67 487.625 1006.29 486.422 1006.29 486.422C1006.29 486.422 1000.36 488.183 996.392 489.708C991.984 491.427 983.168 493.639 985.107 488.806C987.047 483.973 996.127 476.111 1001.37 476.176C1002.67 476.176 1005.78 478.71 1005.78 478.71L1037.56 476.176L1055.75 467.863C1055.75 467.863 1051.65 467.09 1045.89 466.059H1045.76C1033.84 463.911 1014.91 460.538 1010.74 460.366C1004.41 460.109 981.074 435.407 978.628 432.442C976.181 429.478 963.729 432.979 960.643 431.777C957.557 430.574 959.585 427.738 959.585 427.738C964.997 424.231 971.062 421.793 977.437 420.564C985.791 418.996 985.107 425.354 985.107 425.354C985.107 425.354 1009.35 442.71 1014.29 442.71C1019.23 442.71 1064.28 441.314 1070.4 438.908C1075.58 436.76 1097.14 452.44 1103.66 457.295C1104.87 458.197 1105.56 458.734 1105.56 458.734Z" fill="#757575" stroke="#263238" stroke-linecap="round" stroke-linejoin="round"/>
<path d="M978.672 432.464C976.203 429.564 963.773 433.001 960.687 431.798C957.602 430.595 959.629 427.76 959.629 427.76C965.026 424.25 971.076 421.805 977.438 420.564C985.791 418.996 985.108 425.354 985.108 425.354C985.108 425.354 978.187 426.707 978.672 432.464Z" fill="#263238"/>
<path d="M1105.56 458.734C1105.56 458.734 1060.44 485.219 1048.05 486.422C1035.67 487.625 1006.29 486.422 1006.29 486.422C1006.29 486.422 1000.36 488.183 996.392 489.708C991.984 491.426 983.168 493.639 985.108 488.806C987.047 483.973 996.128 476.111 1001.37 476.176C1002.67 476.176 1005.78 478.71 1005.78 478.71L1037.56 476.176L1055.75 467.863C1055.75 467.863 1051.65 467.09 1045.89 466.059H1046.09L1065.71 467.047C1065.71 467.047 1055.94 464.147 1056.89 462.45C1057.84 460.753 1070.12 466.982 1086.69 460.882C1092.04 458.736 1097.74 457.522 1103.53 457.295C1104.87 458.197 1105.56 458.734 1105.56 458.734Z" fill="#263238"/>
<path d="M1116.09 417.299L1136.61 444.02L1169.23 467.498C1169.23 467.498 1180.14 470.312 1181.51 473.04C1181.77 473.534 1183.71 479.698 1182.67 479.484C1177.91 478.603 1175.73 476.476 1174.43 477.142C1170.24 479.29 1175.91 483.221 1174.43 483.586C1170.33 484.295 1165.24 472.632 1165.24 472.632C1165.24 472.632 1137.38 455.705 1131.36 452.29C1125.35 448.875 1104.15 432.958 1104.15 432.958C1104.15 432.958 1109.96 420.306 1116.09 417.299Z" fill="#BFBFBF" stroke="#263238" stroke-miterlimit="10"/>
<path d="M1145.38 438.178L1149.31 446.104C1149.31 446.104 1151.62 443.956 1151.62 446.104C1151.62 448.252 1136.79 462.085 1131.56 460.839C1126.34 459.593 1125.48 456.715 1125.48 456.715C1125.48 456.715 1132.89 441.421 1135.93 439.724C1138.97 438.027 1145.38 438.178 1145.38 438.178Z" fill="#25AAE3" stroke="#263238" stroke-linecap="round" stroke-linejoin="round"/>
<path d="M1065.75 424.581C1065.75 424.581 1114.95 449.498 1113.38 457.853C1111.82 466.209 1110.49 467.068 1110.49 467.068C1110.49 467.068 1128.37 461.226 1130.86 450.056C1133.35 438.886 1102.32 409.416 1065.75 424.581Z" fill="#263238"/>
<path d="M1084 398.117C1097.52 399.28 1110.43 404.134 1121.25 412.122C1135.64 422.862 1144.59 434.655 1143.49 439.724C1141.75 447.801 1113.18 458.218 1094.89 462.88C1076.6 467.541 1056.8 454.288 1057.02 445.846C1057.24 437.404 1067.4 438.242 1067.4 438.242C1067.4 438.242 1076.6 404.905 1084 398.117Z" fill="#263238"/>
<path d="M1110.69 410.855C1108.09 410.029 1105.28 410.031 1102.68 410.862C1100.08 411.692 1097.81 413.307 1096.21 415.473C1090.76 423.182 1082.62 428.694 1073.31 430.982C1053.26 435.686 1023.39 429.457 1023.39 429.457C1025.5 422.479 1028.12 415.66 1031.24 409.051C1036.68 397.237 1049.75 389.375 1063.7 387.571C1069.63 386.776 1097.51 397.151 1097.51 397.151C1140.18 385.423 1147.61 431.089 1147.61 431.089H1143.58C1144.93 433.567 1145.53 436.367 1145.32 439.166L1133 449.906C1123.78 470.032 1102.67 471.386 1100.31 467.949C1100.31 467.949 1127.6 467.67 1134.65 425.569C1135.71 419.168 1120.43 413.884 1110.69 410.855Z" fill="#25AAE3" stroke="#263238" stroke-linecap="round" stroke-linejoin="round"/>
<path d="M1084 398.117L1050.35 391.996L1014.31 373.866C1014.31 373.866 1006.88 365.597 1003.78 365.597C1003.2 365.597 996.7 366.671 997.296 367.422C1000.23 371.16 1003.14 372.17 1003.14 373.587C1003.14 378.184 996.877 375.005 997.273 376.358C998.42 380.246 1011.42 379.537 1011.42 379.537C1011.42 379.537 1039.33 396.399 1045.12 400.158C1050.92 403.917 1074.9 415.409 1074.9 415.409C1074.9 415.409 1083.96 404.798 1084 398.117Z" fill="#BFBFBF" stroke="#263238" stroke-miterlimit="10"/>
<path d="M1088.12 411.693C1083.19 419.468 1070.09 420.285 1070.09 420.285L1059.36 410.34L1054.4 409.008C1056.45 405.399 1057.02 390.449 1057.02 390.449C1057.02 390.449 1081.71 395.926 1085.5 395.067C1089.29 394.208 1090.46 404.132 1090.46 404.132" fill="#25AAE3"/>
<path d="M1088.12 411.693C1083.19 419.468 1070.09 420.285 1070.09 420.285L1059.36 410.34L1054.4 409.008C1056.45 405.399 1057.02 390.449 1057.02 390.449C1057.02 390.449 1081.71 395.926 1085.5 395.067C1089.29 394.208 1090.46 404.132 1090.46 404.132" stroke="#263238" stroke-linecap="round" stroke-linejoin="round"/>
<path d="M1094.89 411.693C1094.89 411.693 1099.89 403.38 1094.89 398.117C1094.89 398.117 1107.63 391.222 1123.74 399.363C1139.85 407.504 1145.49 418.416 1147.61 430.982C1147.61 430.982 1138.4 427.695 1134.38 438.736" stroke="#263238" stroke-linecap="round" stroke-linejoin="round"/>
<path d="M1146.97 396.399C1150.61 397.409 1155.26 402.843 1151.49 404.475C1147.72 406.108 1149.64 408.428 1149.9 409.287C1150.16 410.146 1150.32 412.122 1146.97 412.402C1143.62 412.681 1143.35 411.263 1142.03 413.239C1140.71 415.215 1142.87 414.034 1139.63 415.387C1136.39 416.741 1136.96 416.869 1134.47 416.955C1131.98 417.041 1129.12 418.459 1127.6 414.507C1126.08 410.554 1140.45 394.552 1146.97 396.399Z" fill="#263238"/>
<path d="M1119.26 385.337C1103.02 384.456 1099.21 410.619 1112.01 426.557C1124.82 442.495 1162.86 387.764 1119.26 385.337Z" fill="#BFBFBF" stroke="#263238" stroke-miterlimit="10"/>
<path d="M1114.42 401.232C1116.2 398.568 1122.57 406.602 1123.23 404.626C1123.89 402.65 1127 406.946 1128.32 407.418C1130.41 407.72 1132.54 407.39 1134.43 406.473C1136.17 405.614 1142.56 409.416 1144.59 407.59C1145.16 407.179 1145.58 406.601 1145.79 405.94C1146 405.28 1145.99 404.571 1145.76 403.917C1145.76 403.917 1150.56 403.208 1151.42 401.232C1152.28 399.256 1148.51 402.134 1150.41 398.139C1152.3 394.144 1157.02 391.695 1153.58 390.041C1150.14 388.387 1147.65 386.497 1148.95 383.382C1150.25 380.268 1149.39 375.585 1146.48 375.585C1143.57 375.585 1136.17 377.583 1136.46 374.038C1136.74 370.494 1124.84 369.356 1123.08 371.633C1121.31 373.909 1116.47 370.408 1113.93 370.451C1111.4 370.494 1104.06 375.585 1105.12 378.85C1106.17 382.115 1103.68 382.201 1102.65 385.294C1102.22 386.446 1102.06 387.678 1102.19 388.897C1102.31 390.117 1102.72 391.294 1103.37 392.339C1104.26 393.113 1098.97 391.566 1100.91 395.948C1102.84 400.33 1102.93 402.285 1103.66 402.564C1104.39 402.843 1104.7 397.645 1107.74 396.506C1110.78 395.368 1109.77 403.874 1109.77 403.874C1109.77 403.874 1112.26 404.475 1114.42 401.232Z" fill="#263238"/>
<path d="M1113.34 407.289C1114.52 406.894 1115.78 406.748 1117.02 406.863C1118.27 406.978 1119.48 407.35 1120.57 407.955" stroke="#263238" stroke-linecap="round" stroke-linejoin="round"/>
<path d="M1129.54 409.566C1130.1 409.287 1130.71 409.12 1131.34 409.077C1131.97 409.034 1132.6 409.116 1133.2 409.316C1133.8 409.517 1134.35 409.832 1134.81 410.244C1135.28 410.656 1135.66 411.156 1135.93 411.714" stroke="#263238" stroke-linecap="round" stroke-linejoin="round"/>
<path d="M1125.48 414.657C1125.04 419.189 1126.93 422.454 1122 421.466" stroke="#263238" stroke-linecap="round" stroke-linejoin="round"/>
<path d="M1117.74 413.39C1117.55 414.206 1116.95 414.743 1116.4 414.636C1115.85 414.528 1115.54 413.755 1115.72 412.96C1115.89 412.165 1116.51 411.607 1117.06 411.736C1117.61 411.865 1117.74 412.595 1117.74 413.39Z" fill="#263238"/>
<path d="M1131.85 415.645C1131.67 416.44 1131.08 416.977 1130.51 416.869C1129.93 416.762 1129.65 415.989 1129.84 415.194C1130.04 414.399 1130.64 413.841 1131.19 413.97C1131.74 414.098 1132.05 414.829 1131.85 415.645Z" fill="#263238"/>
<path d="M1697.13 405.206C1695.8 405.667 1694.37 405.778 1692.99 405.528C1687.57 404.862 1679.94 400.931 1678.46 395.304C1678.36 394.916 1678.24 394.536 1678.09 394.165C1677.63 392.462 1676.73 390.906 1675.46 389.654C1674.19 388.402 1672.6 387.498 1670.86 387.034C1670.86 387.034 1667.29 384.198 1667.29 382.33C1667.29 380.461 1669.65 376.186 1669.07 372.878C1668.5 369.57 1670.2 363.685 1672.87 362.267C1674.94 361.294 1677.25 360.932 1679.53 361.226C1681.81 361.52 1683.95 362.457 1685.69 363.921C1690.1 367.68 1694.18 381.105 1698.3 387.979C1702.42 394.852 1701.5 403.38 1697.13 405.206Z" fill="#25AAE3"/>
<path opacity="0.3" d="M1692.99 405.528C1687.57 404.862 1679.94 400.931 1678.46 395.304C1678.36 394.916 1678.24 394.536 1678.09 394.165C1681.68 393.886 1687.98 392.017 1688.98 383.425C1689.02 383.382 1699.75 396.292 1692.99 405.528Z" fill="black" fill-opacity="0.7"/>
<path d="M1697.13 405.206C1695.8 405.667 1694.37 405.778 1692.99 405.528C1687.57 404.862 1679.94 400.931 1678.46 395.304C1678.36 394.916 1678.24 394.536 1678.09 394.165C1677.63 392.462 1676.73 390.906 1675.46 389.654C1674.19 388.402 1672.6 387.498 1670.86 387.034C1670.86 387.034 1667.29 384.198 1667.29 382.33C1667.29 380.461 1669.65 376.186 1669.07 372.878C1668.5 369.57 1670.2 363.685 1672.87 362.267C1674.94 361.294 1677.25 360.932 1679.53 361.226C1681.81 361.52 1683.95 362.457 1685.69 363.921C1690.1 367.68 1694.18 381.105 1698.3 387.979C1702.42 394.852 1701.5 403.38 1697.13 405.206Z" stroke="#263238" stroke-linecap="round" stroke-linejoin="round"/>
<path d="M1689.02 381.019C1689.02 381.019 1688.49 392.017 1683.95 392.533" stroke="#263238" stroke-linecap="round" stroke-linejoin="round"/>
<path d="M1685.94 503.971L1664.34 447.693C1664.14 447.135 1663.94 446.576 1663.78 445.996C1660.43 434.333 1664.89 418.631 1667.73 408.857C1668.62 405.641 1669.27 402.368 1669.69 399.063C1670.41 393.639 1670.84 388.183 1670.99 382.716C1678.42 377.368 1684.22 386.303 1684.22 386.303C1684.22 386.303 1682.28 393.413 1687.61 425.161C1692.94 456.908 1700.28 496.797 1685.94 503.971Z" fill="white"/>
<path opacity="0.4" d="M1680.29 455.362L1663.87 445.996C1660.52 434.333 1664.98 418.631 1667.82 408.857C1668.7 405.641 1669.36 402.368 1669.78 399.063C1683.11 415.602 1680.29 455.362 1680.29 455.362Z" fill="#25AAE3"/>
<path d="M1685.94 503.971L1664.34 447.693C1664.14 447.135 1663.94 446.576 1663.78 445.996C1660.43 434.333 1664.89 418.631 1667.73 408.857C1668.62 405.641 1669.27 402.368 1669.69 399.063C1670.41 393.639 1670.84 388.183 1670.99 382.716C1678.42 377.368 1684.22 386.303 1684.22 386.303C1684.22 386.303 1682.28 393.413 1687.61 425.161C1692.94 456.908 1700.28 496.797 1685.94 503.971Z" stroke="#263238" stroke-linecap="round" stroke-linejoin="round"/>
<path d="M1642.65 475.553C1610.18 488.763 1511.86 425.977 1509.44 425.483C1509.44 425.483 1587.9 411.972 1599.56 409.308C1600.05 409.227 1600.54 409.083 1600.99 408.879C1601.35 409.223 1604.96 411.929 1610.12 416.075C1628.79 431.132 1667.55 465.393 1642.65 475.553Z" fill="white"/>
<path opacity="0.4" d="M1642.65 475.553C1610.18 488.763 1511.86 425.977 1509.44 425.483C1509.44 425.483 1587.9 411.972 1599.56 409.308C1603.06 411.442 1606.58 413.698 1610.12 416.075C1628.79 431.132 1667.55 465.393 1642.65 475.553Z" fill="#25AAE3"/>
<path d="M1642.65 475.553C1610.18 488.763 1511.86 425.977 1509.44 425.483C1509.44 425.483 1587.9 411.972 1599.56 409.308C1600.05 409.227 1600.54 409.083 1600.99 408.879C1601.35 409.223 1604.96 411.929 1610.12 416.075C1628.79 431.132 1667.55 465.393 1642.65 475.553Z" stroke="#263238" stroke-linecap="round" stroke-linejoin="round"/>
<path d="M1692.86 479.849C1695.24 498.236 1687.92 508.546 1672.91 505.754L1671.21 505.41C1644.92 499.933 1641.55 484.897 1607.87 458.154C1596.21 448.853 1584.79 441.421 1575.05 434.784C1559.62 424.194 1548.23 415.581 1546.73 404.712C1544.31 386.905 1521.8 361.086 1563.81 345.663C1595.37 334.107 1649.3 393.456 1672.91 431.283C1677.1 437.949 1680.85 444.865 1684.15 451.989" fill="white"/>
<path opacity="0.4" d="M1671.21 505.41C1644.92 499.933 1641.55 484.897 1607.87 458.154C1596.21 448.853 1584.79 441.421 1575.05 434.784L1588.74 430.917L1597.11 433.903C1612.01 447.413 1625.87 461.965 1638.59 477.443C1647.38 488.85 1658.48 498.371 1671.21 505.41Z" fill="#25AAE3"/>
<path d="M1692.86 479.849C1695.24 498.236 1687.92 508.546 1672.91 505.754L1671.21 505.41C1644.92 499.933 1641.55 484.897 1607.87 458.154C1596.21 448.853 1584.79 441.421 1575.05 434.784C1559.62 424.194 1548.23 415.581 1546.73 404.712C1544.31 386.905 1521.8 361.086 1563.81 345.663C1595.37 334.107 1649.3 393.456 1672.91 431.283C1677.1 437.949 1680.85 444.865 1684.15 451.989" stroke="#263238" stroke-linecap="round" stroke-linejoin="round"/>
<path d="M1597.11 346.845C1612.12 349.508 1645.6 379.602 1646.99 382.716C1648.38 385.831 1652.32 392.468 1652.32 392.468H1656.2C1656.2 392.468 1649.41 419.855 1638.28 430.23C1627.15 440.605 1581.31 442.023 1576.86 440.626C1573.45 439.265 1570.31 437.347 1567.56 434.956L1534.15 425.483L1597.11 346.845Z" fill="#263238"/>
<path d="M1401.49 404.132C1397.98 411.156 1380.66 416.719 1379.45 420.091C1378.16 422.707 1376.18 424.934 1373.69 426.535C1372.93 425.72 1372.51 424.655 1372.51 423.55C1372.51 422.445 1372.93 421.38 1373.69 420.564C1376.49 417.492 1376.8 410.919 1376.8 410.919C1374.42 409.85 1371.97 408.932 1369.46 408.17C1368.63 407.977 1366.84 407.655 1364.75 407.311C1360.56 406.602 1355.14 405.764 1353.73 405.399C1352.06 404.816 1350.55 403.868 1349.32 402.628C1346.5 402.843 1342.18 397.108 1344.76 397.494C1351.66 398.284 1358.64 398.284 1365.54 397.494C1347.6 393.198 1349.3 388.902 1349.3 388.902C1354.92 391.759 1370.85 392.661 1370.85 392.661C1370.85 392.661 1361.24 388.623 1359.57 386.497C1359.21 385.981 1358.99 385.384 1358.94 384.764C1358.89 384.143 1359 383.52 1359.26 382.953C1363.73 385.365 1368.48 387.247 1373.41 388.559C1382.02 390.271 1390.89 390.337 1399.53 388.752V388.752L1401.49 404.132Z" fill="white"/>
<path opacity="0.4" d="M1401.49 404.132C1397.98 411.156 1380.66 416.719 1379.45 420.091C1378.16 422.707 1376.17 424.934 1373.69 426.535C1372.93 425.72 1372.5 424.655 1372.5 423.55C1372.5 422.445 1372.93 421.38 1373.69 420.564C1376.49 417.492 1376.8 410.919 1376.8 410.919C1374.42 409.85 1371.97 408.932 1369.46 408.17C1368.63 407.977 1366.84 407.655 1364.75 407.311C1373.3 407.16 1384.03 406.602 1387.07 404.669C1387.07 404.669 1382.77 396.442 1383.59 389.891C1383.68 388.724 1384.02 387.589 1384.59 386.559C1385.16 385.53 1385.94 384.63 1386.9 383.919C1389.54 382.029 1394.21 384.607 1399.22 388.817H1399.33L1401.49 404.132Z" fill="#25AAE3"/>
<path d="M1401.49 404.132C1397.98 411.156 1380.66 416.719 1379.45 420.091C1378.16 422.707 1376.18 424.934 1373.69 426.535C1372.93 425.72 1372.51 424.655 1372.51 423.55C1372.51 422.445 1372.93 421.38 1373.69 420.564C1376.49 417.492 1376.8 410.919 1376.8 410.919C1374.42 409.85 1371.97 408.932 1369.46 408.17C1368.63 407.977 1366.84 407.655 1364.75 407.311C1360.56 406.602 1355.14 405.764 1353.73 405.399C1352.06 404.816 1350.55 403.868 1349.32 402.628C1346.5 402.843 1342.18 397.108 1344.76 397.494C1351.66 398.284 1358.64 398.284 1365.54 397.494C1347.6 393.198 1349.3 388.902 1349.3 388.902C1354.92 391.759 1370.85 392.661 1370.85 392.661C1370.85 392.661 1361.24 388.623 1359.57 386.497C1359.21 385.981 1358.99 385.384 1358.94 384.764C1358.89 384.143 1359 383.52 1359.26 382.953C1363.73 385.365 1368.48 387.247 1373.41 388.559C1382.02 390.271 1390.89 390.337 1399.53 388.752V388.752L1401.49 404.132Z" stroke="#263238" stroke-linecap="round" stroke-linejoin="round"/>
<path d="M1349.54 402.564C1349.54 402.564 1347.64 402.242 1356.15 401.962C1359.88 401.904 1363.6 401.653 1367.3 401.211" stroke="#263238" stroke-linecap="round" stroke-linejoin="round"/>
<path d="M1736.23 304.808C1740.35 303.863 1752.94 295.357 1757.54 289.923C1760.66 286.058 1763.29 281.847 1765.39 277.378C1765.94 277.695 1766.4 278.143 1766.72 278.681C1767.05 279.218 1767.22 279.827 1767.24 280.45C1767.13 283.135 1761.66 291.813 1761.66 291.813C1761.66 291.813 1774.14 282.125 1777.09 276.648C1777.09 276.648 1781.08 279.29 1768.98 292.887C1775.09 289.666 1780.8 285.758 1785.97 281.245C1787.87 279.483 1787.72 286.593 1785.29 288.011C1785.02 289.703 1784.36 291.313 1783.35 292.715C1781.92 294.369 1773.81 301.973 1772.11 303.863C1770.5 305.914 1769.03 308.067 1767.7 310.307C1767.7 310.307 1771.8 315.505 1775.92 316.45C1777.04 316.664 1778.03 317.277 1778.7 318.167C1779.38 319.058 1779.68 320.162 1779.56 321.262C1776.6 321.361 1773.67 320.678 1771.08 319.286C1768.19 317.138 1750.75 322.357 1743.72 318.577" fill="white"/>
<path d="M1736.23 304.808C1740.35 303.863 1752.94 295.357 1757.54 289.923C1760.66 286.058 1763.29 281.847 1765.39 277.378C1765.94 277.695 1766.4 278.143 1766.72 278.681C1767.05 279.218 1767.22 279.827 1767.24 280.45C1767.13 283.135 1761.66 291.813 1761.66 291.813C1761.66 291.813 1774.14 282.125 1777.09 276.648C1777.09 276.648 1781.08 279.29 1768.98 292.887C1775.09 289.666 1780.8 285.758 1785.97 281.245C1787.87 279.483 1787.72 286.593 1785.29 288.011C1785.02 289.703 1784.36 291.313 1783.35 292.715C1781.92 294.369 1773.81 301.973 1772.11 303.863C1770.5 305.914 1769.03 308.067 1767.7 310.307C1767.7 310.307 1771.8 315.505 1775.92 316.45C1777.04 316.664 1778.03 317.277 1778.7 318.167C1779.38 319.058 1779.68 320.162 1779.56 321.262C1776.6 321.361 1773.67 320.678 1771.08 319.286C1768.19 317.138 1750.75 322.357 1743.72 318.577" stroke="#263238" stroke-linecap="round" stroke-linejoin="round"/>
<path d="M1748.7 318.255C1748.7 318.255 1692.99 346.845 1680.91 346.845C1664.69 346.845 1616.49 374.532 1616.49 374.532L1597.11 329.016C1597.11 329.016 1639.28 322.422 1650.87 322.744C1663.94 323.088 1673.64 311.338 1694.95 309.362C1724 306.656 1740.97 304.099 1740.97 304.099" fill="white"/>
<path opacity="0.4" d="M1748.7 318.255C1748.7 318.255 1692.99 346.845 1680.91 346.845C1664.69 346.845 1616.49 374.532 1616.49 374.532L1597.11 329.016C1597.11 329.016 1611.84 326.718 1626.27 324.892C1634.92 331.194 1641.4 339.916 1644.83 349.895C1644.83 349.895 1666.87 341.668 1670.42 339.327C1673.97 336.985 1670.42 328.35 1670.42 328.35C1673.78 327.76 1677.22 327.76 1680.58 328.35C1686.4 329.317 1682.32 338.274 1682.32 338.274C1705.12 333.939 1727.36 327.198 1748.66 318.169L1748.7 318.255Z" fill="#25AAE3"/>
<path d="M1748.7 318.255C1748.7 318.255 1692.99 346.845 1680.91 346.845C1664.69 346.845 1616.49 374.532 1616.49 374.532L1597.11 329.016C1597.11 329.016 1639.28 322.422 1650.87 322.744C1663.94 323.088 1673.64 311.338 1694.95 309.362C1724 306.656 1740.97 304.099 1740.97 304.099" stroke="#263238" stroke-linecap="round" stroke-linejoin="round"/>
<path d="M1629.56 374.532L1622.94 377.024L1594.65 387.764C1594.65 387.764 1583.49 410.898 1573.33 421.767C1563.17 432.636 1525.48 437.748 1506.04 434.01C1486.61 430.273 1457.14 445.803 1443.47 434.01C1429.81 422.218 1396.59 407.569 1383.52 387.743C1379.53 381.685 1380.88 375.327 1384.69 369.42C1393.4 355.952 1414.84 344.804 1414.84 344.804C1442.71 332.789 1472.38 325.252 1502.72 322.486C1526.1 320.552 1549.65 322 1572.61 326.782C1580.05 328.243 1584.46 329.21 1585.48 328.35C1589.4 325.021 1596.85 326.031 1598.3 326.202H1598.57C1598.57 326.202 1597.69 320.789 1601.5 319.758C1604.03 319.028 1608.64 320.231 1616.93 326.202C1637.89 341.346 1629.56 374.532 1629.56 374.532Z" fill="#25AAE3"/>
<path opacity="0.3" d="M1622.99 377.024L1594.69 387.764C1594.69 387.764 1583.54 410.898 1573.38 421.767C1563.22 432.636 1525.48 437.748 1506.04 434.01C1486.61 430.273 1457.14 445.803 1443.47 434.01C1429.81 422.218 1396.59 407.569 1383.52 387.743C1379.53 381.685 1380.88 375.327 1384.69 369.42C1384.69 369.42 1383.52 393.714 1403.89 401.855C1424.25 409.996 1425.93 409.652 1425.93 409.652C1425.93 409.652 1445.1 429.843 1451.21 432.679C1457.31 435.514 1498.57 423.528 1502.36 425.139C1506.15 426.75 1519.8 437.211 1542.17 430.123C1564.54 423.034 1586.07 403.208 1585.76 390.191C1585.57 382.613 1585.87 375.03 1586.64 367.487C1586.64 367.487 1595.46 376.079 1600.31 376.874C1600.31 376.874 1608.99 364.78 1610.18 359.862C1610.18 359.862 1614.9 362.224 1611.53 374.511C1608.16 386.797 1622.39 363.277 1622.39 353.654C1622.46 346.759 1626.87 360.42 1622.99 377.024Z" fill="black" fill-opacity="0.7"/>
<path opacity="0.3" d="M1572.61 326.782C1569.17 332.088 1559.49 339.885 1532.23 340.637C1490.51 341.775 1488.15 331.25 1488.15 331.25L1502.67 322.486C1526.07 320.548 1549.64 321.996 1572.61 326.782V326.782Z" fill="black" fill-opacity="0.7"/>
<path opacity="0.3" d="M1598.22 326.267H1598.48C1598.48 326.267 1597.6 320.854 1601.41 319.823C1606.83 322.98 1613.73 328.05 1613.71 333.355C1608.8 330.5 1603.61 328.126 1598.22 326.267V326.267Z" fill="black" fill-opacity="0.7"/>
<path d="M1629.56 374.532L1622.94 377.024L1594.65 387.764C1594.65 387.764 1583.49 410.898 1573.33 421.767C1563.17 432.636 1525.48 437.748 1506.04 434.01C1486.61 430.273 1457.14 445.803 1443.47 434.01C1429.81 422.218 1396.59 407.569 1383.52 387.743C1379.53 381.685 1380.88 375.327 1384.69 369.42C1393.4 355.952 1414.84 344.804 1414.84 344.804C1442.71 332.789 1472.38 325.252 1502.72 322.486C1526.1 320.552 1549.65 322 1572.61 326.782C1580.05 328.243 1584.46 329.21 1585.48 328.35C1589.4 325.021 1596.85 326.031 1598.3 326.202H1598.57C1598.57 326.202 1597.69 320.789 1601.5 319.758C1604.03 319.028 1608.64 320.231 1616.93 326.202C1637.89 341.346 1629.56 374.532 1629.56 374.532Z" stroke="#263238" stroke-linecap="round" stroke-linejoin="round"/>
<path d="M1530.02 395.261C1528.16 396.708 1526.21 398.049 1524.18 399.277C1520.68 401.473 1516.95 403.301 1513.05 404.733C1493.46 411.843 1458.66 409.48 1436.57 399.707C1434.36 398.749 1432.21 397.658 1430.14 396.442C1427.29 394.811 1424.66 392.841 1422.31 390.578C1405.26 373.587 1412.62 359.625 1422.31 353.138C1424.96 351.407 1427.75 349.884 1430.65 348.585C1432.85 347.511 1435.45 346.437 1438.07 345.556C1462.47 336.77 1499.19 332.668 1524.29 335.546C1527.09 335.847 1529.74 336.233 1532.23 336.749C1542.01 338.661 1549.07 341.969 1551.29 346.845C1558.3 362.031 1546.8 382.416 1530.02 395.261Z" fill="white" stroke="#263238" stroke-linecap="round" stroke-linejoin="round"/>
<path d="M1530.02 395.261C1528.16 396.708 1526.21 398.049 1524.18 399.277C1516.3 378.728 1516.3 356.095 1524.18 335.546C1526.98 335.847 1529.63 336.234 1532.12 336.749C1521.08 358.551 1526.7 384.048 1530.02 395.261Z" fill="#263238"/>
<path d="M1436.57 399.707C1434.36 398.749 1432.21 397.659 1430.14 396.442C1428.85 380.507 1429.02 364.491 1430.65 348.585C1432.85 347.511 1435.45 346.437 1438.07 345.556C1432.74 366.499 1434.97 388.945 1436.57 399.707Z" fill="#263238"/>
<path d="M1785.25 288.011C1785.25 288.011 1786.61 286.679 1779.58 291.168C1776.5 293.219 1773.31 295.105 1770.02 296.818" stroke="#263238" stroke-linecap="round" stroke-linejoin="round"/>
<path d="M1598.57 326.31C1603.68 327.31 1608.43 329.633 1612.31 333.034C1616.18 336.435 1619.05 340.79 1620.61 345.642C1626.12 362.547 1623.52 367.594 1623.52 367.594" stroke="#263238" stroke-linecap="round" stroke-linejoin="round"/>
<path d="M1585.48 328.35C1585.48 328.35 1579.57 341.775 1580.1 351.678C1580.63 361.58 1588.74 373.888 1588.74 373.888" stroke="#263238" stroke-linecap="round" stroke-linejoin="round"/>
<path d="M1555.61 371.74C1555.61 371.74 1530.33 421.144 1486.14 416.268" stroke="#263238" stroke-linecap="round" stroke-linejoin="round"/>
<path d="M1408.78 373.888C1408.78 373.888 1406.8 397.516 1445.74 411.177" stroke="#263238" stroke-linecap="round" stroke-linejoin="round"/>
<path d="M1594.69 387.743C1594.69 387.743 1613.64 361.601 1611.44 351.119" stroke="#263238" stroke-linecap="round" stroke-linejoin="round"/>
<g opacity="0.2">
<path opacity="0.2" d="M1650.74 394.165C1650.74 394.165 1636.98 425.247 1622.46 425.161" stroke="white" stroke-linecap="round" stroke-linejoin="round"/>
<path opacity="0.2" d="M1618.69 384.521C1618.69 384.521 1623.34 415.151 1608.22 426.471" stroke="white" stroke-linecap="round" stroke-linejoin="round"/>
</g>
<path d="M1471.18 387.743C1466.92 378.979 1456.9 375.306 1447.37 373.888C1440.29 372.907 1433.11 372.806 1426 373.587L1426.83 371.912L1443.47 338.274C1443.47 338.274 1486.94 326.847 1495.4 346.866" fill="white"/>
<path d="M1471.18 387.743C1466.92 378.979 1456.9 375.306 1447.37 373.888C1440.29 372.907 1433.11 372.806 1426 373.587L1426.83 371.912L1443.47 338.274C1443.47 338.274 1486.94 326.847 1495.4 346.866" stroke="#263238" stroke-linecap="round" stroke-linejoin="round"/>
<path d="M1447.37 373.888C1440.29 372.907 1433.11 372.806 1426 373.587L1426.83 371.912C1430.67 367.895 1437.48 363.921 1448.37 361.172C1449.08 363.248 1449.37 365.444 1449.2 367.628C1449.03 369.813 1448.41 371.942 1447.37 373.888V373.888Z" fill="#263238"/>
<path d="M1387.12 318.684C1387.12 318.684 1382.4 330.627 1365.54 319.629C1348.68 308.632 1360.01 300.706 1360.01 300.706C1360.01 300.706 1354.5 307.45 1369.02 313.143C1369.02 313.143 1358 308.847 1362.41 294.476C1366.82 280.106 1387.12 318.684 1387.12 318.684Z" fill="#263238"/>
<path d="M1451.28 359.196C1449.42 369.742 1428.93 386.003 1414.05 384.413C1407.13 383.661 1379.91 365.489 1380.75 340.422C1381.34 322.336 1366.33 304.873 1377.53 276.82C1391.13 242.753 1439.79 227.652 1468.66 258.476C1485.15 276.068 1479.57 315.226 1463.77 345.255" fill="white"/>
<path d="M1451.28 359.196C1449.42 369.742 1428.93 386.003 1414.05 384.413C1407.13 383.661 1379.91 365.489 1380.75 340.422C1381.34 322.336 1366.33 304.873 1377.53 276.82C1391.13 242.753 1439.79 227.652 1468.66 258.476C1485.15 276.068 1479.57 315.226 1463.77 345.255" stroke="#263238" stroke-linecap="round" stroke-linejoin="round"/>
<path d="M1408.78 307.966C1408.78 307.966 1421.5 303.154 1429.28 312.047" stroke="#263238" stroke-linecap="round" stroke-linejoin="round"/>
<path d="M1417.49 328.372C1417.49 330.713 1416.32 332.668 1414.91 332.668C1413.5 332.668 1412.37 330.735 1412.4 328.372C1412.42 326.009 1413.59 324.076 1414.98 324.076C1416.36 324.076 1417.49 326.052 1417.49 328.372Z" fill="#263238"/>
<path d="M1389.65 326.331C1389.65 328.694 1388.48 330.627 1387.07 330.627C1385.66 330.627 1384.56 328.716 1384.56 326.331C1384.56 323.947 1385.75 322.035 1387.16 322.035C1388.57 322.035 1389.67 323.904 1389.65 326.331Z" fill="#263238"/>
<path d="M1387.29 309.276C1387.29 309.276 1378.19 302.832 1374.64 309.878" stroke="#263238" stroke-linecap="round" stroke-linejoin="round"/>
<path d="M1395.89 329.016C1395.54 332.174 1386.65 339.756 1389.78 342.957C1391.49 344.789 1393.68 346.133 1396.11 346.845" stroke="#263238" stroke-linecap="round" stroke-linejoin="round"/>
<path d="M1393.24 354.943C1402.22 356.392 1411.42 355.774 1420.11 353.138" stroke="#263238" stroke-linecap="round" stroke-linejoin="round"/>
<path d="M1420.07 353.138C1420.07 353.138 1416.39 364.866 1407.26 364.78C1398.14 364.695 1396.97 355.437 1396.97 355.437" stroke="#263238" stroke-linecap="round" stroke-linejoin="round"/>
<path d="M1438.98 296.173C1438.98 296.173 1444.18 315.763 1452.84 321.198C1457.93 324.3 1461.89 328.884 1464.17 334.3L1466.81 347.854C1466.81 347.854 1487.64 361.558 1499.28 352.15C1510.92 342.742 1517.44 343.902 1517.44 343.902C1517.44 343.902 1516.47 338.704 1506.42 340.358C1506.42 340.358 1528.46 342.506 1525.07 323.174C1521.67 303.842 1450.35 266.918 1438.98 296.173Z" fill="#263238"/>
<path d="M1414.84 280.364C1414.84 280.364 1402.9 278.001 1389.12 293.811C1380.11 304.164 1366.93 303.025 1359.3 295.593C1351.68 288.161 1352.4 264.791 1341.87 264.082C1341.87 264.082 1352.76 258.411 1360.38 266.552C1360.38 266.552 1365.47 261.591 1360.03 255.232C1354.59 248.874 1362.67 231.604 1380.97 234.698C1380.97 234.698 1371.98 236.846 1378.34 241.743C1378.34 241.743 1390.18 227.974 1405.08 229.392C1419.98 230.81 1457.31 213.969 1466.79 243.182C1466.79 243.182 1480.96 237.49 1489.32 241.743C1497.67 245.996 1503.86 269.388 1512.94 275.058C1522.02 280.729 1532.91 270.44 1540.54 272.223C1548.16 274.006 1553.98 281.417 1553.98 281.417C1553.98 281.417 1546.71 278.581 1541.64 282.125C1541.64 282.125 1556.52 292.758 1563.79 286.421C1563.79 286.421 1560.53 317.933 1532.18 321.477C1532.18 321.477 1543.82 326.417 1560.53 321.477C1547.9 330.18 1533.32 335.834 1518.01 337.973C1493.77 340.938 1498.77 324.785 1459.78 317.933C1447.62 315.785 1447.42 298.601 1447.42 298.601C1446.33 303.021 1446 307.587 1446.45 312.111C1447.18 319.715 1453.72 326.31 1459.17 326.374C1459.17 326.374 1443.45 329.081 1436.64 320.081C1424.98 304.658 1431.2 283.973 1431.2 283.973C1431.2 283.973 1419.01 278.066 1404.33 293.531C1392.41 306.076 1383.26 302.016 1383.26 302.016C1388.18 301.397 1392.72 299.117 1396.09 295.572C1401.07 289.923 1406.64 280.364 1414.84 280.364Z" fill="#263238"/>
<path d="M1454.47 329.016C1454.47 329.016 1463.4 313.98 1470.19 320.188C1476.97 326.396 1477.72 330.391 1475.78 334.408C1473.38 339.235 1470.36 343.752 1466.81 347.854C1466.26 348.488 1465.58 348.997 1464.8 349.346C1464.03 349.695 1463.19 349.876 1462.34 349.876C1461.49 349.876 1460.65 349.695 1459.87 349.346C1459.1 348.997 1458.42 348.488 1457.86 347.854" fill="white"/>
<path d="M1454.47 329.016C1454.47 329.016 1463.4 313.98 1470.19 320.188C1476.97 326.396 1477.72 330.391 1475.78 334.408C1473.38 339.235 1470.36 343.752 1466.81 347.854C1466.26 348.488 1465.58 348.997 1464.8 349.346C1464.03 349.695 1463.19 349.876 1462.34 349.876C1461.49 349.876 1460.65 349.695 1459.87 349.346C1459.1 348.997 1458.42 348.488 1457.86 347.854" stroke="#263238" stroke-linecap="round" stroke-linejoin="round"/>
<g opacity="0.2">
<path opacity="0.2" d="M1436.44 272.932C1436.44 272.932 1438.01 258.218 1422.2 259.636C1403.32 261.333 1391.59 291.018 1374.64 291.233C1359.21 291.426 1365.54 271.901 1365.54 271.901" stroke="white" stroke-linecap="round" stroke-linejoin="round"/>
<path opacity="0.2" d="M1445.74 273.233C1445.74 273.233 1436.55 278.431 1438.98 291.405C1441.4 304.379 1453.3 317.632 1472.79 313.143C1492.27 308.653 1499.52 307.214 1509.7 317.439C1519.89 327.663 1545.43 318.641 1540.21 306.57" stroke="white" stroke-linecap="round" stroke-linejoin="round"/>
<path opacity="0.2" d="M1449.82 264.727C1449.82 264.727 1458.24 296.173 1485.28 292.779C1512.33 289.386 1530.55 271.536 1540.91 277.464" stroke="white" stroke-linecap="round" stroke-linejoin="round"/>
<path opacity="0.2" d="M1456.81 255.512C1456.81 255.512 1458.83 246.039 1472.5 256.8C1486.16 267.562 1492.84 275.209 1502.14 270.118" stroke="white" stroke-linecap="round" stroke-linejoin="round"/>
<path opacity="0.2" d="M1448.34 259.464C1448.34 259.464 1455.62 252.762 1446.6 244.278C1437.59 235.793 1410.85 254.18 1390.8 253.342C1370.74 252.504 1387.27 239.165 1387.27 239.165" stroke="white" stroke-linecap="round" stroke-linejoin="round"/>
<path opacity="0.2" d="M1456.81 244.901C1456.81 244.901 1460.86 231.583 1443.14 228.189" stroke="white" stroke-linecap="round" stroke-linejoin="round"/>
</g>
<path d="M1343.85 582.072C1346.21 580.2 1348.95 578.847 1351.89 578.106C1354.83 577.364 1357.9 577.252 1360.89 577.776C1362.2 577.873 1363.48 578.256 1364.62 578.897C1365.77 579.538 1366.75 580.42 1367.49 581.48C1368.24 582.539 1368.73 583.748 1368.94 585.018C1369.14 586.288 1369.05 587.586 1368.67 588.817C1368.67 588.817 1387.16 604.111 1401.49 633.925C1415.81 663.739 1425.4 716.988 1425.4 716.988L1200.46 706.248C1200.46 706.248 1235.46 651.796 1242.8 641.593C1250.14 631.39 1264.84 618.739 1264.84 618.739C1265.61 616.74 1266.9 614.972 1268.58 613.612C1270.27 612.251 1272.29 611.345 1274.45 610.984C1282.29 609.287 1288.47 610.125 1290.18 612.681C1290.65 613.626 1290.9 614.661 1290.9 615.71C1290.9 616.759 1290.65 617.794 1290.18 618.739C1290.18 618.739 1290.78 660.646 1294.84 661.312C1298.89 661.978 1343.74 657.725 1343.74 657.725C1343.74 657.725 1348.86 634.934 1350.02 630.617L1346.96 595.669C1346.96 595.669 1337.04 585.638 1343.85 582.072Z" fill="#263238"/>
<path d="M1342.55 585.337C1342.55 585.337 1336.36 576.036 1337.81 573.802C1339.27 571.568 1352.93 567.595 1356.57 568.475C1360.21 569.356 1364.02 584.005 1360.29 585.337C1356.57 586.669 1342.55 585.337 1342.55 585.337Z" stroke="#263238" stroke-linecap="round" stroke-linejoin="round"/>
<path d="M1287.87 614.743C1287.87 614.743 1292.92 607.118 1291.73 605.314C1290.54 603.509 1279.36 600.223 1276.3 601.017C1273.24 601.812 1270.19 613.712 1273.26 614.808C1276.32 615.903 1287.87 614.743 1287.87 614.743Z" stroke="#263238" stroke-linecap="round" stroke-linejoin="round"/>
<path opacity="0.4" d="M1356.53 626.536C1356.53 626.536 1361.75 608.235 1370.76 608.041" stroke="white" stroke-linecap="round" stroke-linejoin="round"/>
<path opacity="0.4" d="M1370.76 620.865C1370.76 620.865 1390.89 625.44 1397.21 641.572" stroke="white" stroke-linecap="round" stroke-linejoin="round"/>
<path opacity="0.4" d="M1245.77 647.285C1245.77 647.285 1261.78 631.068 1278.64 633.903" stroke="white" stroke-linecap="round" stroke-linejoin="round"/>
<path opacity="0.4" d="M1273.35 614.743C1273.35 614.743 1283.09 611.242 1286.86 620.865" stroke="white" stroke-linecap="round" stroke-linejoin="round"/>
<path opacity="0.4" d="M1349.65 588.581C1349.65 588.581 1355.73 580.354 1363.64 585.938" stroke="white" stroke-linecap="round" stroke-linejoin="round"/>
<path d="M1684.33 886.336L1666.69 912.22C1667.2 913.604 1667.79 914.959 1668.46 916.279C1670.82 921.091 1675.62 928.845 1683.33 932.368C1694.07 937.287 1696.76 943.237 1702.99 941.347C1703.52 941.206 1704.03 941.019 1704.51 940.788C1711.88 937.394 1706.3 931.723 1708.7 927.191C1711.1 922.659 1721.75 921.349 1725.63 917.74C1729.51 914.131 1727.22 909.148 1729.24 904.508C1731.27 899.869 1726.07 895.573 1723.31 894.477C1720.56 893.382 1720.89 884.725 1715.01 885.885C1709.12 887.045 1708.15 881.89 1706.89 880.644C1705.64 879.398 1687.3 884.811 1684.33 886.336Z" fill="white"/>
<path opacity="0.4" d="M1668.44 916.279C1670.79 921.091 1675.6 928.845 1683.31 932.368C1694.05 937.287 1696.73 943.237 1702.97 941.347C1697.7 938.082 1693.38 933.463 1692.08 930.027C1690.26 925.344 1678.4 919.136 1668.44 916.279Z" fill="#25AAE3"/>
<path d="M1684.33 886.336L1666.69 912.22C1667.2 913.604 1667.79 914.959 1668.46 916.279C1670.82 921.091 1675.62 928.845 1683.33 932.368C1694.07 937.287 1696.76 943.237 1702.99 941.347C1703.52 941.206 1704.03 941.019 1704.51 940.788C1711.88 937.394 1706.3 931.723 1708.7 927.191C1711.1 922.659 1721.75 921.349 1725.63 917.74C1729.51 914.131 1727.22 909.148 1729.24 904.508C1731.27 899.869 1726.07 895.573 1723.31 894.477C1720.56 893.382 1720.89 884.725 1715.01 885.885C1709.12 887.045 1708.15 881.89 1706.89 880.644C1705.64 879.398 1687.3 884.811 1684.33 886.336Z" stroke="#263238" stroke-linecap="round" stroke-linejoin="round"/>
<path d="M1690.78 889.429L1643.35 866.875C1631.5 861.226 1606.57 850.185 1594.07 844.128C1590.45 842.242 1586.48 841.088 1582.39 840.734C1577.54 840.434 1574.32 841.722 1570.75 841.293C1564.96 840.584 1521.91 839.252 1521.91 839.252L1514.46 865.844L1499.37 919.867L1515.24 914.69L1576.18 894.778C1576.18 894.778 1599.65 904.874 1622.86 904.616C1641.26 904.401 1664.07 914.089 1672.75 918.127C1674.96 919.179 1676.33 919.845 1676.33 919.845" fill="white"/>
<path opacity="0.4" d="M1521.94 839.252L1514.46 865.844L1515.24 914.69L1576.18 894.778C1576.18 894.778 1599.65 904.874 1622.86 904.616C1641.26 904.401 1664.07 914.088 1672.76 918.127C1658.47 907.537 1633.22 898.515 1623.03 898.215C1607.1 897.764 1588.72 882.491 1588.72 882.491C1581 890.761 1567.16 890.31 1567.16 890.31C1586.38 868.959 1585.56 851.002 1582.39 840.734C1577.54 840.434 1574.32 841.722 1570.75 841.293C1564.98 840.584 1521.94 839.252 1521.94 839.252Z" fill="#25AAE3"/>
<path d="M1690.78 889.429L1643.35 866.875C1631.5 861.226 1606.57 850.185 1594.07 844.128C1590.45 842.242 1586.48 841.088 1582.39 840.734C1577.54 840.434 1574.32 841.722 1570.75 841.293C1564.96 840.584 1521.91 839.252 1521.91 839.252L1514.46 865.844L1499.37 919.867L1515.24 914.69L1576.18 894.778C1576.18 894.778 1599.65 904.874 1622.86 904.616C1641.26 904.401 1664.07 914.089 1672.75 918.127C1674.96 919.179 1676.33 919.845 1676.33 919.845" stroke="#263238" stroke-linecap="round" stroke-linejoin="round"/>
<path d="M972.28 678.174V709.255C971.074 710.136 969.815 710.947 968.511 711.682C963.817 714.41 955.287 718.277 946.978 717.052C935.253 715.356 929.633 718.857 925.511 713.938C925.162 713.532 924.845 713.101 924.563 712.649C920.354 705.84 928.222 704.057 928.795 699.052C929.368 694.047 921.235 687.152 919.979 682.062C918.723 676.971 923.483 674.114 924.387 669.174C925.291 664.233 932.101 663.438 935.01 664.018C937.92 664.598 942.57 657.209 946.802 661.376C951.033 665.543 954.78 661.741 956.521 661.376C958.262 661.011 970.583 675.295 972.28 678.174Z" fill="white"/>
<path opacity="0.4" d="M968.423 711.682C963.728 714.41 955.199 718.277 946.89 717.052C935.165 715.356 929.544 718.857 925.423 713.938C931.66 714.045 937.875 712.542 940.851 710.372C945.149 707.386 958.505 708.675 968.423 711.682Z" fill="#25AAE3"/>
<path d="M972.28 678.174V709.255C971.074 710.136 969.815 710.947 968.511 711.682C963.817 714.41 955.287 718.277 946.978 717.052C935.253 715.356 929.633 718.857 925.511 713.938C925.162 713.532 924.845 713.101 924.563 712.649C920.354 705.84 928.222 704.057 928.795 699.052C929.368 694.047 921.235 687.152 919.979 682.062C918.723 676.971 923.483 674.114 924.387 669.174C925.291 664.233 932.101 663.438 935.01 664.018C937.92 664.598 942.57 657.209 946.802 661.376C951.033 665.543 954.78 661.741 956.521 661.376C958.262 661.011 970.583 675.295 972.28 678.174Z" stroke="#263238" stroke-linecap="round" stroke-linejoin="round"/>
<path d="M965.029 677.25L1017.35 684.038C1030.42 685.735 1057.46 689.988 1071.31 691.685C1075.39 692.058 1079.36 693.235 1082.96 695.143C1087.17 697.506 1089.14 700.32 1092.33 701.888C1097.58 704.422 1134.21 726.525 1134.21 726.525L1125.28 752.688L1107.19 805.829L1096.92 792.941L1057.49 743.537C1057.49 743.537 1032.21 739.241 1013.01 726.547C997.802 716.451 973.338 712.219 963.772 710.888C961.282 710.544 959.827 710.394 959.827 710.394" fill="white"/>
<path opacity="0.4" d="M1134.19 726.525L1125.26 752.688L1096.89 792.963L1057.46 743.559C1057.46 743.559 1032.18 739.263 1012.99 726.568C997.78 716.472 973.316 712.241 963.75 710.909C981.669 709.792 1007.83 715.914 1016.47 721.155C1030 729.361 1053.94 726.568 1053.94 726.568C1055.68 737.609 1067.45 744.697 1067.45 744.697C1063.57 716.537 1074.46 702.038 1082.88 695.186C1087.09 697.549 1089.05 700.362 1092.24 701.931C1097.58 704.422 1134.19 726.525 1134.19 726.525Z" fill="#25AAE3"/>
<path d="M965.029 677.25L1017.35 684.038C1030.42 685.735 1057.46 689.988 1071.31 691.685C1075.39 692.058 1079.36 693.235 1082.96 695.143C1087.17 697.506 1089.14 700.32 1092.33 701.888C1097.58 704.422 1134.21 726.525 1134.21 726.525L1125.28 752.688L1107.19 805.829L1096.92 792.941L1057.49 743.537C1057.49 743.537 1032.21 739.241 1013.01 726.547C997.802 716.451 973.338 712.219 963.772 710.888C961.282 710.544 959.827 710.394 959.827 710.394" stroke="#263238" stroke-linecap="round" stroke-linejoin="round"/>
<path d="M1170.49 731.186L1153.14 860.066L1152.3 866.36C1152.3 866.36 1108.93 832.701 1081.77 789.204C1080.3 786.819 1078.98 784.5 1077.83 782.201C1057.99 742.614 1087.57 716.451 1113.95 708.525C1141.83 700.148 1130.44 717.009 1130.44 717.009C1150.43 714.367 1170.49 731.186 1170.49 731.186Z" fill="#757575"/>
<path opacity="0.3" d="M1153.14 860.109L1152.3 866.403C1152.3 866.403 1108.93 832.744 1081.77 789.247C1080.3 786.862 1078.98 784.543 1077.83 782.244C1075.76 771.719 1074.66 762.16 1076.4 758.616C1081.05 748.972 1095.57 744.719 1095.57 744.719C1095.57 744.719 1101.15 806.173 1114.75 824.431C1124.19 836.608 1134.99 847.718 1146.97 857.553L1153.14 860.109Z" fill="black" fill-opacity="0.7"/>
<path d="M1170.49 731.186L1153.14 860.066L1152.3 866.36C1152.3 866.36 1108.93 832.701 1081.77 789.204C1080.3 786.819 1078.98 784.5 1077.83 782.201C1057.99 742.614 1087.57 716.451 1113.95 708.525C1141.83 700.148 1130.44 717.009 1130.44 717.009C1150.43 714.367 1170.49 731.186 1170.49 731.186Z" stroke="#263238" stroke-linecap="round" stroke-linejoin="round"/>
<path d="M1560.46 898.58C1552.47 905.169 1543.24 910.175 1533.29 913.315C1498.29 924.807 1412.4 933.936 1412.4 933.936L1417.31 924.743L1475.39 815.968C1475.39 815.968 1545.12 821.961 1558.92 835.021C1558.92 835.021 1557.18 814.958 1572.83 844.064C1583.74 864.362 1577.23 884.403 1560.46 898.58Z" fill="#757575"/>
<path opacity="0.3" d="M1560.46 898.58C1552.47 905.169 1543.24 910.175 1533.29 913.315C1498.29 924.807 1412.4 933.936 1412.4 933.936L1417.31 924.743C1447.4 919.996 1491.15 910.738 1501.94 901.63C1517.37 888.742 1512.96 902.983 1512.96 902.983C1512.96 902.983 1540.27 882.04 1546.66 866.167C1553.06 850.293 1558.43 848.102 1560.4 858.563C1561.7 865.554 1561.42 872.739 1559.58 879.614C1557.74 886.489 1554.37 892.889 1549.73 898.365C1544.22 904.809 1551.31 903.585 1560.46 898.58Z" fill="black" fill-opacity="0.7"/>
<path d="M1560.46 898.58C1552.47 905.169 1543.24 910.175 1533.29 913.315C1498.29 924.807 1412.4 933.936 1412.4 933.936L1417.31 924.743L1475.39 815.968C1475.39 815.968 1545.12 821.961 1558.92 835.021C1558.92 835.021 1557.18 814.958 1572.83 844.064C1583.74 864.362 1577.23 884.403 1560.46 898.58Z" stroke="#263238" stroke-linecap="round" stroke-linejoin="round"/>
<path d="M1118.05 815.968C1098.22 773.459 1159.29 723.819 1159.29 723.819L1183.86 719.866C1186.38 679.785 1271.74 644.536 1300.3 641.786C1345.75 637.49 1436.33 696.99 1458.33 727.878C1480.32 758.767 1471.68 796.614 1471.68 796.614C1471.68 796.614 1525.33 838.651 1528.59 866.36C1531.85 894.069 1438.23 956.855 1334.64 927.556C1231.05 898.258 1163.85 913.616 1118.05 815.968Z" fill="#757575"/>
<path opacity="0.3" d="M1329.77 689.837C1272.8 678.947 1214.85 718.706 1214.85 718.706C1205.79 718.513 1189.18 719.737 1179.81 720.511L1183.78 719.866C1184.66 705.754 1195.81 692.243 1211.13 680.558C1241.61 668.658 1281.08 657.832 1284.21 659.959C1288.62 662.901 1256.2 678.968 1247.52 683.2C1289.39 663.567 1319.5 675.36 1329.77 681.482C1340.04 687.603 1329.77 689.837 1329.77 689.837Z" fill="black" fill-opacity="0.7"/>
<path opacity="0.3" d="M1471.62 796.593C1465.58 791.824 1456.98 785.617 1449.75 782.76C1449.75 782.76 1442.26 751.743 1379.47 718.706C1379.47 718.706 1372.31 710.329 1373.43 706.398C1376.1 697.012 1427.36 723.196 1428.73 723.883C1427.93 723.11 1410.9 706.377 1423.15 705.647C1431.97 705.131 1454.01 726.568 1467.85 746.265C1473.43 762.464 1474.73 779.775 1471.62 796.593V796.593Z" fill="black" fill-opacity="0.7"/>
<path opacity="0.3" d="M1291.86 726.525C1291.86 726.525 1352.71 735.418 1401.29 759.089C1401.29 759.089 1364.72 724.184 1336.56 717.289C1308.39 710.394 1283.66 711.103 1282.12 716.967C1280.58 722.831 1291.86 726.525 1291.86 726.525Z" fill="black" fill-opacity="0.7"/>
<path opacity="0.3" d="M1389.98 927.922C1403.43 927.922 1477.75 916.022 1498.84 903.735C1463.57 927.234 1401.16 946.437 1334.64 927.599C1244.85 902.189 1182.3 910.415 1137.4 849.176C1142.98 854.331 1146.92 857.489 1146.92 857.489L1200.46 879.935C1200.46 879.935 1169.27 823.915 1228.01 830.037C1286.75 836.159 1339.77 911.339 1339.77 911.339C1339.77 911.339 1365.83 909.427 1361.81 914.711C1357.8 919.995 1347.03 921.8 1347.03 921.8C1347.03 921.8 1375.77 927.922 1389.98 927.922Z" fill="black" fill-opacity="0.7"/>
<path opacity="0.3" d="M1507.08 897.807C1505.49 899.052 1503.84 900.277 1502.1 901.501C1503.66 900.143 1505.32 898.907 1507.08 897.807V897.807Z" fill="black" fill-opacity="0.7"/>
<path d="M1118.05 815.968C1098.22 773.459 1159.29 723.819 1159.29 723.819L1183.86 719.866C1186.38 679.785 1271.74 644.536 1300.3 641.786C1345.75 637.49 1436.33 696.99 1458.33 727.878C1480.32 758.767 1471.68 796.614 1471.68 796.614C1471.68 796.614 1525.33 838.651 1528.59 866.36C1531.85 894.069 1438.23 956.855 1334.64 927.556C1231.05 898.258 1163.85 913.616 1118.05 815.968Z" stroke="#263238" stroke-linecap="round" stroke-linejoin="round"/>
<path d="M1306.38 920.382C1306.38 920.382 1348.59 927.062 1366.51 911.339" stroke="#263238" stroke-linecap="round" stroke-linejoin="round"/>
<path d="M1471.6 796.657C1471.6 796.657 1454.18 780.053 1422.8 774.103" stroke="#263238" stroke-linecap="round" stroke-linejoin="round"/>
<path d="M1376.96 684.209C1393.95 693.936 1410.16 704.916 1425.44 717.052" stroke="#263238" stroke-linecap="round" stroke-linejoin="round"/>
<path d="M1235.79 689.622C1276.43 665.436 1329.33 650.4 1369.24 679.935" stroke="#263238" stroke-linecap="round" stroke-linejoin="round"/>
<path d="M1216.92 700.599C1220.58 698.451 1224.24 696.303 1227.94 694.155" stroke="#263238" stroke-linecap="round" stroke-linejoin="round"/>
<path d="M1397.25 728.716C1421.65 743.494 1447.64 762.44 1460.25 788.388" stroke="#263238" stroke-linecap="round" stroke-linejoin="round"/>
<path d="M1370.76 714.41C1377.37 717.461 1383.7 720.854 1389.98 724.442" stroke="#263238" stroke-linecap="round" stroke-linejoin="round"/>
<path d="M1456.52 738.855C1456.52 738.855 1471.57 766.113 1471.6 796.657" stroke="#263238" stroke-linecap="round" stroke-linejoin="round"/>
<path d="M1241.87 721.735C1247.86 722.92 1253.75 724.521 1259.51 726.525" stroke="#263238" stroke-linecap="round" stroke-linejoin="round"/>
<path d="M1159.29 723.819C1183 718.268 1207.56 717.001 1231.74 720.081" stroke="#263238" stroke-linecap="round" stroke-linejoin="round"/>
<path d="M1276.7 691.212C1254.45 696.441 1233.45 705.814 1214.85 718.814" stroke="#263238" stroke-linecap="round" stroke-linejoin="round"/>
<path d="M1337.81 692.114C1321.44 686.401 1302.35 686.766 1285.47 689.451" stroke="#263238" stroke-linecap="round" stroke-linejoin="round"/>
<path d="M1553.14 872.74C1537.98 897.656 1513.03 915.098 1485 924.012" stroke="#263238" stroke-linecap="round" stroke-linejoin="round"/>
<path d="M1562.95 850.937C1561.49 856.212 1559.45 861.318 1556.87 866.167" stroke="#263238" stroke-linecap="round" stroke-linejoin="round"/>
<path d="M1495.93 818.266C1495.93 818.266 1528 823.679 1538.47 841.894" stroke="#263238" stroke-linecap="round" stroke-linejoin="round"/>
<path d="M1130.39 716.988C1130.39 716.988 1107.16 714.99 1099.03 730.778" stroke="#263238" stroke-linecap="round" stroke-linejoin="round"/>
<path d="M1100.77 768.948C1099.19 803.058 1115.14 834.312 1142.34 855.513" stroke="#263238" stroke-linecap="round" stroke-linejoin="round"/>
<path d="M1104.83 744.912C1103.11 750.358 1101.94 755.955 1101.35 761.623" stroke="#263238" stroke-linecap="round" stroke-linejoin="round"/>
<path d="M1373.41 842.345C1351.37 813.648 1311.7 805.056 1276.43 805.829" stroke="#263238" stroke-linecap="round" stroke-linejoin="round"/>
<path d="M1387.91 866.403C1385.47 860.082 1382.21 854.09 1378.21 848.575" stroke="#263238" stroke-linecap="round" stroke-linejoin="round"/>
<path d="M1309.49 916.365C1295.52 915.728 1281.64 913.764 1268.06 910.501C1264.25 909.628 1260.63 908.704 1257.19 907.73C1174.61 884.532 1194.29 838.243 1219.57 824.388C1261.66 801.34 1321.9 823.271 1353.66 852.484C1387.05 883.179 1371.2 918.492 1309.49 916.365Z" fill="white" stroke="#263238" stroke-linecap="round" stroke-linejoin="round"/>
<path d="M1309.49 916.365C1295.52 915.728 1281.64 913.764 1268.06 910.501C1264.25 909.628 1260.63 908.704 1257.19 907.73C1263.46 897.853 1270.64 888.55 1278.64 879.935C1280.24 881.181 1312.84 894.735 1309.49 916.365Z" fill="#263238"/>
<path d="M1306.52 895.959C1306.52 912.907 1280.07 947.791 1236.39 947.511C1212.14 947.383 1188.29 909.513 1186.2 857.575C1184.55 816.763 1164.65 769.979 1216.2 735.826C1268.1 701.458 1337.81 728.351 1337.81 803.488C1337.81 827.868 1335.3 850.121 1329.26 869.539" fill="white"/>
<path d="M1306.52 895.959C1306.52 912.907 1280.07 947.791 1236.39 947.511C1212.14 947.383 1188.29 909.513 1186.2 857.575C1184.55 816.763 1164.65 769.979 1216.2 735.826C1268.1 701.458 1337.81 728.351 1337.81 803.488C1337.81 827.868 1335.3 850.121 1329.26 869.539" stroke="#263238" stroke-linecap="round" stroke-linejoin="round"/>
<path d="M1234.09 827.61C1234.09 827.61 1256.99 820.844 1272.02 834.355" stroke="#263238" stroke-linecap="round" stroke-linejoin="round"/>
<path d="M1204.03 825.913C1204.03 825.913 1194.36 817.321 1182.39 821.424" stroke="#263238" stroke-linecap="round" stroke-linejoin="round"/>
<path d="M1253.07 855.555C1253.07 859.551 1251.06 862.773 1248.66 862.751C1246.26 862.73 1244.25 859.486 1244.39 855.491C1244.52 851.496 1246.39 848.274 1248.79 848.295C1251.2 848.317 1253.09 851.56 1253.07 855.555Z" fill="#263238"/>
<path d="M1201.87 850.98C1201.87 854.954 1199.87 858.176 1197.46 858.154C1195.06 858.133 1193.16 854.89 1193.21 850.894C1193.25 846.899 1195.21 843.677 1197.62 843.699C1200.02 843.72 1201.89 846.985 1201.87 850.98Z" fill="#263238"/>
<path d="M1208.33 834.355C1208.83 842.331 1208.83 850.329 1208.33 858.305C1206.81 872.181 1200.11 881.933 1202.62 884.983C1205.9 889.086 1221.84 890.482 1221.84 890.482" stroke="#263238" stroke-linecap="round" stroke-linejoin="round"/>
<path d="M1211.94 900.943C1211.94 900.943 1240.9 906.442 1263.19 898.064C1263.19 898.064 1268.28 904.874 1254.37 911.941C1240.46 919.008 1218.93 919.265 1217.58 903.348" stroke="#263238" stroke-linecap="round" stroke-linejoin="round"/>
<path d="M1272.02 803.209C1272.02 803.209 1282.05 830.811 1294.22 840.863L1298.63 855.513C1298.63 855.513 1307.93 840.176 1318.66 847.844C1329.39 855.513 1325.78 879.935 1325.78 879.935C1325.78 879.935 1358.84 864.599 1359.46 847.157C1359.74 837.052 1362.14 827.111 1366.51 817.944C1366.51 817.944 1359.35 820.758 1356.48 825.935C1356.48 825.935 1372.24 792.769 1362.21 784.392C1352.18 776.015 1272.02 803.209 1272.02 803.209Z" fill="#25AAE3"/>
<path opacity="0.3" d="M1272.02 803.209C1272.02 803.209 1282.05 830.811 1294.22 840.863L1298.63 855.513C1298.63 855.513 1307.93 840.176 1318.66 847.844C1329.39 855.513 1325.78 879.935 1325.78 879.935C1325.78 879.935 1358.84 864.599 1359.46 847.157C1359.74 837.052 1362.14 827.111 1366.51 817.944C1366.51 817.944 1359.35 820.758 1356.48 825.935C1356.48 825.935 1372.24 792.769 1362.21 784.392C1352.18 776.015 1272.02 803.209 1272.02 803.209Z" fill="black" fill-opacity="0.7"/>
<path d="M1272.02 803.209C1272.02 803.209 1282.05 830.811 1294.22 840.863L1298.63 855.513C1298.63 855.513 1307.93 840.176 1318.66 847.844C1329.39 855.513 1325.78 879.935 1325.78 879.935C1325.78 879.935 1358.84 864.599 1359.46 847.157C1359.74 837.052 1362.14 827.111 1366.51 817.944C1366.51 817.944 1359.35 820.758 1356.48 825.935C1356.48 825.935 1372.24 792.769 1362.21 784.392C1352.18 776.015 1272.02 803.209 1272.02 803.209Z" stroke="#263238" stroke-linecap="round" stroke-linejoin="round"/>
<path d="M1358.64 803.896L1322.72 815.989C1303.39 820.133 1283.34 819.817 1264.16 815.066C1233.3 806.817 1216.22 791.824 1212.69 788.516L1212.01 787.851C1214.21 796.228 1221.9 806.689 1221.9 806.689C1199.62 804.541 1188.36 783.061 1188.36 783.061C1180.49 792.834 1181.75 814.464 1181.75 814.464C1168.72 783.297 1181.11 767.015 1181.11 767.015C1176.02 741.239 1185.52 731.444 1185.52 731.444L1193.3 736.32C1207.51 705.625 1248.82 706.484 1248.82 706.484L1242.78 713.293C1277.14 697.957 1348.7 713.293 1348.7 713.293L1352.29 742.592L1363.73 739.112C1364.06 739.929 1364.37 740.788 1364.64 741.647C1367.83 752.287 1369.69 763.264 1370.17 774.34C1370.17 774.554 1370.17 774.683 1370.17 774.683L1374.31 771.912L1381.61 767.015C1381.61 767.015 1382.22 787.872 1358.64 803.896Z" fill="#25AAE3"/>
<path opacity="0.3" d="M1284.21 782.76C1345.92 789.827 1364.04 742.936 1364.55 741.561C1367.74 752.201 1369.6 763.178 1370.08 774.254C1327.9 797.452 1284.21 782.76 1284.21 782.76Z" fill="black" fill-opacity="0.7"/>
<path opacity="0.3" d="M1358.64 803.896L1322.72 815.989C1303.39 820.133 1283.33 819.817 1264.16 815.066C1233.3 806.817 1216.22 791.824 1212.69 788.516C1211.39 786.726 1210.24 784.829 1209.28 782.846C1210.18 784.414 1224.09 806.968 1284.21 814.765C1346.56 822.841 1381.54 766.929 1381.54 766.929C1381.54 766.929 1382.22 787.872 1358.64 803.896Z" fill="black" fill-opacity="0.7"/>
<path opacity="0.3" d="M1221.84 738.855C1221.84 738.855 1228.74 722.444 1257.1 714.41C1257.1 714.41 1231.49 715.484 1219.28 733.034C1219.28 733.034 1218.75 725.193 1221.77 721.112C1221.77 721.112 1203.79 720.21 1200.39 744.976C1200.39 744.976 1190.37 746.824 1186.4 741.54C1186.4 741.54 1181.99 755.158 1197.42 759.089C1197.42 759.089 1187.48 771.354 1201.96 788.559C1201.96 788.559 1200.06 772.986 1206.37 762.654C1206.37 762.654 1207.67 780.118 1237.82 786.605C1237.82 786.605 1211.66 773.459 1216.81 751.485C1216.81 751.485 1225.14 772.363 1262.02 771.096C1262.02 771.096 1228.34 761.473 1223.84 744.654C1232.18 740.992 1241.46 739.905 1250.45 741.54C1250.45 741.54 1234.23 735.59 1221.84 738.855Z" fill="black" fill-opacity="0.7"/>
<path d="M1358.64 803.896L1322.72 815.989C1303.39 820.133 1283.34 819.817 1264.16 815.066C1233.3 806.817 1216.22 791.824 1212.69 788.516L1212.01 787.851C1214.21 796.228 1221.9 806.689 1221.9 806.689C1199.62 804.541 1188.36 783.061 1188.36 783.061C1180.49 792.834 1181.75 814.464 1181.75 814.464C1168.72 783.297 1181.11 767.015 1181.11 767.015C1176.02 741.239 1185.52 731.444 1185.52 731.444L1193.3 736.32C1207.51 705.625 1248.82 706.484 1248.82 706.484L1242.78 713.293C1277.14 697.957 1348.7 713.293 1348.7 713.293L1352.29 742.592L1363.73 739.112C1364.06 739.929 1364.37 740.788 1364.64 741.647C1367.83 752.287 1369.69 763.264 1370.17 774.34C1370.17 774.554 1370.17 774.683 1370.17 774.683L1374.31 771.912L1381.61 767.015C1381.61 767.015 1382.22 787.872 1358.64 803.896Z" stroke="#263238" stroke-linecap="round" stroke-linejoin="round"/>
<path d="M1306.38 850.937C1306.38 850.937 1317.85 827.116 1330.01 834.355C1342.18 841.594 1340.61 855.362 1337.81 862.408C1335.01 869.453 1322.14 902.253 1310.68 883.415" fill="white"/>
<path d="M1306.38 850.937C1306.38 850.937 1317.85 827.116 1330.01 834.355C1342.18 841.594 1340.61 855.362 1337.81 862.408C1335.01 869.453 1322.14 902.253 1310.68 883.415" stroke="#263238" stroke-linecap="round" stroke-linejoin="round"/>
<path d="M1202.07 759.089C1195.85 762.59 1193.25 781.084 1206.48 793.929" stroke="#263238" stroke-linecap="round" stroke-linejoin="round"/>
<path d="M1211.94 756.275C1211.94 780.719 1255.82 801.727 1306.38 797.474C1356.94 793.22 1361.75 781.084 1361.75 781.084" stroke="#263238" stroke-linecap="round" stroke-linejoin="round"/>
<path d="M1227.48 752.022C1243.17 776.509 1329.88 782.609 1343.85 738.855" stroke="#263238" stroke-linecap="round" stroke-linejoin="round"/>
<path d="M1211.94 744.654C1205.79 742.764 1209.74 725.107 1224.86 717.052" stroke="#263238" stroke-linecap="round" stroke-linejoin="round"/>
<path d="M1186.8 735.869C1184.59 741.669 1189.31 756.683 1201.21 753.719" stroke="#263238" stroke-linecap="round" stroke-linejoin="round"/>
<path opacity="0.3" d="M1374.25 771.826L1381.54 766.929C1379.12 768.712 1376.69 770.344 1374.25 771.826Z" fill="black" fill-opacity="0.7"/>
</svg>
