<svg width="989" height="345" viewBox="0 0 989 345" fill="none" xmlns="http://www.w3.org/2000/svg">
<path d="M510.254 344.921C791.937 344.921 1020.29 330.098 1020.29 311.812C1020.29 293.527 791.937 278.703 510.254 278.703C228.572 278.703 0.222656 293.527 0.222656 311.812C0.222656 330.098 228.572 344.921 510.254 344.921Z" fill="#25AAE3"/>
<path opacity="0.6" d="M521 344.922C808.74 344.922 1042 330.065 1042 311.738C1042 293.411 808.74 278.555 521 278.555C233.26 278.555 0 293.411 0 311.738C0 330.065 233.26 344.922 521 344.922Z" fill="white"/>
<path d="M-9.5 123.667C8 99.1674 62.8 55.4674 142 76.6674C241 103.167 254.5 235.667 311.5 243.667C368.5 251.667 436.5 56.1674 501.5 35.1674C566.5 14.1674 679 152.167 741.5 173.167C804 194.167 788 118.167 879.5 76.6674C952.7 43.4674 991.667 35.1674 1002 35.1674" stroke="#DDF5FF" stroke-width="2"/>
<path d="M-12 58.6675C21.1667 54.3341 100.5 72.2675 152.5 178.667C217.5 311.667 444.5 14.1675 606 58.6675C767.5 103.167 734 115.667 825 147.167C897.8 172.367 968 98.6675 994 58.6675" stroke="#25AAE3" stroke-width="2"/>
<path d="M854.848 146.908C854.848 146.908 854.43 165.988 851.606 176.216C849.553 183.216 847.092 190.05 844.239 196.673C844.239 196.673 854.799 203.192 859.686 203.67C864.572 204.148 871.056 178.998 871.056 161.801C871.056 144.603 865.407 139.461 854.848 146.908Z" fill="white" stroke="#263238" stroke-width="0.48509" stroke-linecap="round" stroke-linejoin="round"/>
<path d="M884.292 96.9175C884.292 96.9175 867.102 96.1869 860.545 101.779C853.988 107.371 851.606 132.015 849.568 141.793L847.529 151.572C852.312 153.73 857.239 155.441 862.264 156.686C864.179 156.849 866.082 157.159 867.961 157.614C867.961 157.614 873.143 123.781 879.233 113.89C882.313 108.801 885.711 103.974 889.4 99.4465C889.4 99.4465 892.15 95.6811 884.292 96.9175Z" fill="white" stroke="#263238" stroke-width="0.48509" stroke-linecap="round" stroke-linejoin="round"/>
<path d="M898.339 66.8782C899.759 73.1042 901.95 79.0657 904.846 84.5812C909.758 93.8824 911.772 100.374 926.801 100.851C941.83 101.329 949.566 115.351 956 157.136C962.434 198.921 966.167 245.061 955.189 274.37C944.212 303.678 911.796 300.812 890.628 292.045C869.459 283.278 864.597 255.767 864.204 226.009C863.811 196.251 863.786 149.24 867.863 125.495C871.939 101.75 883.702 96.6643 889.007 94.8097C894.311 92.9551 887.361 81.7712 887.361 81.7712L898.339 66.8782Z" fill="white"/>
<g style="mix-blend-mode:multiply" opacity="0.4">
<path d="M941.266 158.176C941.266 158.176 944.851 169.416 938.491 178.155C932.13 186.894 916.389 182.707 919.434 186.782C922.479 190.856 936.109 195.886 938.491 199.961C939.189 200.988 939.6 202.232 939.67 203.53C939.74 204.829 939.466 206.121 938.884 207.239C938.884 207.239 951.408 209.796 952.292 207.379C953.176 204.963 944.925 171.102 944.925 171.102L941.266 158.176Z" fill="#25AAE3"/>
</g>
<g style="mix-blend-mode:multiply" opacity="0.4">
<path d="M937.435 219.968C937.435 219.968 946.152 230.871 945.76 234.018C945.367 237.165 937.435 229.944 939.006 234.468C940.578 238.992 947.356 246.298 949.345 249.923C951.334 253.548 959.168 259.983 959.168 259.983L961.968 235.395L962.508 231.096L937.435 219.968Z" fill="#25AAE3"/>
</g>
<path d="M898.339 66.8782C899.759 73.1042 901.95 79.0657 904.846 84.5812C909.758 93.8824 911.772 100.374 926.801 100.851C941.83 101.329 949.566 115.351 956 157.136C962.434 198.921 966.167 245.061 955.189 274.37C944.212 303.678 911.796 300.812 890.628 292.045C869.459 283.278 864.597 255.767 864.204 226.009C863.811 196.251 863.786 149.24 867.863 125.495C871.939 101.75 883.702 96.6643 889.007 94.8097C894.311 92.9551 887.361 81.7712 887.361 81.7712L898.339 66.8782Z" stroke="#263238" stroke-width="0.48509" stroke-linecap="round" stroke-linejoin="round"/>
<path d="M884.292 96.9172C885.812 96.0707 887.388 95.3659 889.007 94.8097C894.287 92.9551 887.362 81.7712 887.362 81.7712L898.339 66.8782C899.759 73.1042 901.951 79.0657 904.847 84.5812C908.997 92.4774 911.109 98.3503 920.883 100.233C917.783 105.344 915.52 111.057 914.203 117.093C911.747 129.204 906.492 148.734 896.718 144.097C887.435 139.686 880.387 114.199 884.292 96.9172Z" fill="white"/>
<g style="mix-blend-mode:multiply" opacity="0.4">
<path d="M909.635 100.008C912.21 102.101 915.086 103.661 918.132 104.617L920.588 99.8114C920.588 99.8114 910.446 101.245 900.303 74.5212C898.098 79.4698 894.981 83.8126 891.168 87.2506L903.275 89.0209" fill="#25AAE3"/>
</g>
<path d="M884.292 96.9172C885.812 96.0707 887.388 95.3659 889.007 94.8097C894.287 92.9551 887.362 81.7712 887.362 81.7712L898.339 66.8782C899.759 73.1042 901.951 79.0657 904.847 84.5812C908.997 92.4774 911.109 98.3503 920.883 100.233C917.783 105.344 915.52 111.057 914.203 117.093C911.747 129.204 906.492 148.734 896.718 144.097C887.435 139.686 880.387 114.199 884.292 96.9172Z" stroke="#263238" stroke-width="0.48509" stroke-linecap="round" stroke-linejoin="round"/>
<path d="M940.259 153.848L928.569 141.962" stroke="#263238" stroke-width="0.48509" stroke-linecap="round" stroke-linejoin="round"/>
<path d="M926.801 100.852C926.801 100.852 923.363 106.247 920.76 121.871C918.157 137.494 910.372 151.629 902.562 154.579C894.753 157.53 890.873 154.579 890.873 154.579" stroke="#263238" stroke-width="0.48509" stroke-linecap="round" stroke-linejoin="round"/>
<path d="M965.43 152.5C965.43 152.5 971.52 214.32 971.937 225.054C972.355 235.788 968.696 232.978 962.581 231.124C956.466 229.269 921.521 211.454 913.466 208.306C905.411 205.159 904.11 204.119 897.602 205.047C891.905 206.023 886.167 206.652 880.411 206.929C876.335 206.929 880.829 196.223 886.919 194.369C893.01 192.514 892.617 192.964 899.517 194.818C906.418 196.673 917.42 202.265 929.207 205.047C940.995 207.829 951.162 208.784 952.365 207.379C953.568 205.974 944.998 165.51 944.998 165.51L965.43 152.5Z" fill="white" stroke="#263238" stroke-width="0.48509" stroke-linecap="round" stroke-linejoin="round"/>
<path d="M920.882 100.233C925.415 100.853 929.994 100.9 934.536 100.374C938.691 100.036 942.862 100.693 946.782 102.304C950.701 103.916 954.284 106.445 957.301 109.731C963.809 117.15 969.58 141.344 972.036 147.414C974.492 153.483 975.277 156.237 975.277 156.237L945.194 171.13L932.596 130.188" fill="white"/>
<g style="mix-blend-mode:multiply" opacity="0.4">
<path d="M921.202 99.9238C927.115 100.652 933.06 100.98 939.007 100.907C942.599 100.967 946.135 101.935 949.361 103.743C952.588 105.55 955.425 108.151 957.67 111.361C963.245 118.638 974.664 155.956 974.664 155.956L967.665 159.384C967.665 159.384 960.052 118.639 951.334 112.288C943.67 107.06 934.83 104.529 925.917 105.01C923.462 105.01 920.711 104.813 918.968 104.617L921.202 99.9238Z" fill="#25AAE3"/>
</g>
<path d="M920.882 100.233C925.415 100.853 929.994 100.9 934.536 100.374C938.691 100.036 942.862 100.693 946.782 102.304C950.701 103.916 954.284 106.445 957.301 109.731C963.809 117.15 969.58 141.344 972.036 147.414C974.492 153.483 975.277 156.237 975.277 156.237L945.194 171.13L932.596 130.188" stroke="#263238" stroke-width="0.48509" stroke-linecap="round" stroke-linejoin="round"/>
<path d="M959.118 255.852C959.118 255.852 946.839 243.207 938.318 242.476" stroke="#263238" stroke-width="0.48509" stroke-linecap="round" stroke-linejoin="round"/>
<path d="M937.017 236.406C943.053 239.45 948.917 242.923 954.575 246.804" stroke="#263238" stroke-width="0.48509" stroke-linecap="round" stroke-linejoin="round"/>
<path d="M860.883 53.9211C856.085 32.114 861.067 11.8806 872.01 8.72845C882.953 5.57633 895.713 20.6992 900.51 42.5062C905.308 64.3133 900.326 84.5467 889.384 87.6989C878.441 90.851 865.681 75.7282 860.883 53.9211Z" fill="white"/>
<g style="mix-blend-mode:multiply" opacity="0.4">
<path d="M891.463 86.8578C892.838 83.7106 894.655 76.1518 893.354 71.3747C891.364 64.1249 880.657 55.9758 880.657 55.9758C880.657 55.9758 885.569 57.3247 890.48 58.1958C895.392 59.0669 902.194 60.3314 902.194 60.3314L900.5 73.9319C898.216 80.0577 895.441 85.0594 891.463 86.8578Z" fill="#25AAE3"/>
</g>
<path d="M860.883 53.9211C856.085 32.114 861.067 11.8806 872.01 8.72845C882.953 5.57633 895.713 20.6992 900.51 42.5062C905.308 64.3133 900.326 84.5467 889.384 87.6989C878.441 90.851 865.681 75.7282 860.883 53.9211Z" stroke="#263238" stroke-width="0.48509" stroke-linecap="round" stroke-linejoin="round"/>
<g style="mix-blend-mode:multiply" opacity="0.4">
<path d="M900.352 75.1399C902.218 79.3549 908.014 92.5058 914.006 96.8332C915.697 98.0803 917.544 99.0276 919.482 99.6432" fill="#25AAE3"/>
</g>
<g style="mix-blend-mode:multiply" opacity="0.4">
<path d="M890.579 144.098C890.579 144.098 888.983 169.978 890.579 176.357C892.175 182.735 898.511 182.258 895.343 185.883C891.892 189.17 888.166 192.06 884.219 194.509L878.669 200.888L877.416 191.222C877.416 191.222 881.394 192.598 885.373 176.694C887.912 166.017 889.653 155.112 890.579 144.098Z" fill="#25AAE3"/>
</g>
<path d="M871.669 59.5444C872.96 61.6843 873.8 64.1367 874.125 66.71C874.125 67.553 874.125 68.3117 874.125 68.9299C874.103 69.2253 874.137 69.5227 874.225 69.8015C874.314 70.0803 874.454 70.334 874.636 70.545C874.818 70.756 875.038 70.9194 875.28 71.0238C875.523 71.1282 875.782 71.1711 876.041 71.1497L878.963 70.8969" stroke="#263238" stroke-width="0.48509" stroke-linecap="round" stroke-linejoin="round"/>
<path d="M884.169 77.6405C885.526 77.8133 886.89 77.3859 887.981 76.4456C889.073 75.5053 889.808 74.1233 890.038 72.5825" stroke="#263238" stroke-width="0.48509" stroke-linecap="round" stroke-linejoin="round"/>
<path d="M879.748 58.7012L881.222 62.0732C882.083 62.5433 883.056 62.6741 883.988 62.4454C884.921 62.2167 885.762 61.6412 886.379 60.8087" stroke="#263238" stroke-width="0.48509" stroke-linecap="round" stroke-linejoin="round"/>
<path d="M868.01 63.7593L870.196 67.1313C870.196 67.1313 873.143 67.1313 873.143 64.6023" stroke="#263238" stroke-width="0.48509" stroke-linecap="round" stroke-linejoin="round"/>
<path d="M856.37 33.8606C851.458 17.3096 863.418 0.140426 881.271 0.505729C899.125 0.871031 911.624 20.8502 917.543 34.535C923.077 40.8815 927.835 48.056 931.688 55.863C939.055 70.2784 939.055 78.6523 944.703 87.9534C950.352 97.2546 967.051 97.7323 976.825 109.843C986.599 121.955 986.648 135.892 982.104 145.193C977.561 154.495 974.737 166.578 980.484 174.951C986.23 183.325 991.854 194.622 987.384 213.589C986.544 217.825 984.593 221.665 981.793 224.598C978.993 227.531 975.478 229.415 971.717 230C971.962 228.414 972.036 226.801 971.938 225.195C971.618 216.765 967.886 177.958 966.24 160.789L975.179 156.349C975.179 156.349 974.369 153.539 971.938 147.526C969.506 141.512 963.809 117.262 957.203 109.843C954.184 106.562 950.6 104.038 946.681 102.432C942.761 100.825 938.591 100.172 934.438 100.514C929.896 101.04 925.317 100.993 920.784 100.374C918.046 99.9924 915.431 98.8542 913.163 97.0575C910.895 95.2608 909.044 92.8595 907.769 90.0609L907.13 88.8526V88.7121C906.443 87.4195 905.755 86.0426 904.994 84.6095C903.231 81.2099 901.719 77.6475 900.475 73.9595C901.715 69.5623 902.377 64.9788 902.44 60.359C894.434 60.0499 872.283 57.802 861.085 42.7403C860.422 41.813 859.808 40.8857 859.268 39.9303C859.428 44.6713 860.02 49.3803 861.036 53.9803C863.102 64.5463 867.763 74.2173 874.469 81.8556L875.648 83.0078L876.384 83.6822C876.753 83.9913 877.096 84.3004 877.465 84.5533C877.723 84.77 877.994 84.9671 878.275 85.1434C878.608 85.3981 878.952 85.6326 879.307 85.8459L880.166 86.3517L881.198 86.8575L882.057 87.2228L883.089 87.5881L883.948 87.841C885.783 88.3192 887.688 88.3192 889.523 87.841L890.235 87.56C891.016 89.2383 891.268 91.1737 890.947 93.0395C890.82 93.5097 890.588 93.9337 890.274 94.269C889.959 94.6043 889.573 94.8393 889.154 94.9503C887.578 95.4923 886.042 96.1784 884.562 97.0017C885.497 108.361 887.139 119.63 889.473 130.722C893.55 150.251 889.081 168.854 884.194 182.342C879.307 195.83 864.277 204.204 858.998 196.392C853.718 188.58 855.338 180.122 858.58 161.492C861.822 142.861 870.368 115.913 870.368 95.4281C870.368 74.943 859.808 68.4519 854.504 56.3689C850.697 47.6297 854.086 38.4128 856.37 33.8606Z" fill="#263238"/>
<path d="M861.33 27.5942C861.33 27.5942 880.092 46.3933 898.167 48.4165C916.241 50.4397 918.107 50.4117 918.107 50.4117" stroke="white" stroke-width="0.345985" stroke-linecap="round" stroke-linejoin="round"/>
<path d="M865.431 13.4883C865.431 13.4883 882.45 35.6593 896.521 41.0264C910.593 46.3935 916.462 46.3935 916.462 46.3935" stroke="white" stroke-width="0.345985" stroke-linecap="round" stroke-linejoin="round"/>
<path d="M875.402 5.45166C875.402 5.45166 880.092 22.3117 891.241 30.2922" stroke="white" stroke-width="0.345985" stroke-linecap="round" stroke-linejoin="round"/>
<path d="M907.67 68.5361C907.67 68.5361 908.26 90.0327 918.82 93.3766C929.379 96.7205 941.093 90.0328 954.6 98.0694C959.871 101.314 964.154 106.32 966.879 112.419C969.603 118.518 970.639 125.421 969.85 132.211" stroke="white" stroke-width="0.345985" stroke-linecap="round" stroke-linejoin="round"/>
<path d="M973.952 222.919C976.749 218.273 978.62 212.98 979.43 207.415C980.241 201.85 979.972 196.149 978.642 190.716C973.952 172.591 970.44 165.875 970.44 165.875" stroke="white" stroke-width="0.345985" stroke-linecap="round" stroke-linejoin="round"/>
<path d="M870.048 103.437C870.048 103.437 867.126 128.952 877.096 145.053C887.066 161.154 880.608 183.325 880.608 183.325" stroke="white" stroke-width="0.345985" stroke-linecap="round" stroke-linejoin="round"/>
<path d="M869.533 79.9448C869.533 79.9448 868.943 87.3352 877.17 106.134C885.397 124.933 887.73 130.975 888.319 144.407" stroke="white" stroke-width="0.345985" stroke-linecap="round" stroke-linejoin="round"/>
<path d="M813.223 293.675C813.223 293.675 800.035 292.214 792.398 296.091C784.76 299.969 783.041 306.292 781.347 300.475C779.652 294.658 779.652 291.23 786.013 287.352C792.373 283.474 794.952 285.891 797.481 282.969C798.723 281.444 800.154 280.137 801.73 279.091C801.73 279.091 808.532 278.107 808.974 282.491C809.416 286.874 815.752 288.308 815.752 288.308L813.223 293.675Z" fill="white" stroke="#263238" stroke-width="0.48509" stroke-miterlimit="10"/>
<path d="M758.091 179.475C762.56 167.842 781.199 175.822 802.81 195.745C830.781 221.541 852.514 227.555 864.204 228.594V228.173C870.294 224.913 878.938 224.773 889.228 226.684C889.547 226.15 889.866 225.616 890.161 225.054C909.807 190.182 914.964 184.14 921.472 190.182C927.98 196.223 935.298 205.524 932.867 234.383C932.65 236.653 932.272 238.899 931.737 241.099C941.409 246.358 950.605 252.692 959.192 260.011C958.248 264.924 956.916 269.73 955.214 274.37C944.286 303.594 911.919 300.924 890.775 292.129C884.381 296.086 877.434 298.739 870.245 299.969C853.497 302.357 842.176 301.655 835.545 298.761L824.298 309.27C806.593 293.899 791.594 274.83 780.094 253.07C774.488 242.218 769.516 230.954 765.212 219.35C758.213 201.225 755.831 185.32 758.091 179.475Z" fill="#263238"/>
<path d="M890.21 224.942C887.869 229.132 885.31 233.157 882.548 236.997L806.199 221.317L830.241 199.286L898.339 210.695C896.006 214.798 893.28 219.575 890.21 224.942Z" fill="#25AAE3" stroke="#263238" stroke-width="0.48509" stroke-linecap="round" stroke-linejoin="round"/>
<path opacity="0.5" d="M890.21 224.942C887.869 229.132 885.31 233.157 882.548 236.997L806.199 221.317L830.241 199.286L898.339 210.695C896.006 214.798 893.28 219.575 890.21 224.942Z" fill="white" stroke="#263238" stroke-width="0.52825" stroke-linecap="round" stroke-linejoin="round"/>
<path d="M873.217 173.321L885.103 233.371C884.268 234.636 883.408 235.872 882.647 237.081L806.199 221.316L791.096 158.428L873.217 173.321Z" fill="#25AAE3" stroke="#263238" stroke-width="0.48509" stroke-linecap="round" stroke-linejoin="round"/>
<path d="M834.318 208.25C835.796 208.73 837.365 208.7 838.829 208.164C840.292 207.629 841.585 206.611 842.545 205.238C843.505 203.865 844.09 202.199 844.227 200.448C844.363 198.697 844.045 196.938 843.313 195.393C842.58 193.847 841.465 192.583 840.108 191.759C838.75 190.936 837.211 190.588 835.681 190.761C834.152 190.934 832.702 191.619 831.511 192.73C830.321 193.842 829.443 195.331 828.989 197.01C828.408 199.309 828.641 201.778 829.638 203.881C830.636 205.985 832.317 207.554 834.318 208.25Z" fill="white"/>
<path opacity="0.5" d="M873.217 173.321L885.103 233.371C884.268 234.636 883.408 235.872 882.647 237.081L806.199 221.316L791.096 158.428L873.217 173.321Z" fill="white" stroke="#263238" stroke-width="0.52825" stroke-linecap="round" stroke-linejoin="round"/>
<path d="M834.318 208.25C835.796 208.73 837.365 208.7 838.829 208.164C840.292 207.629 841.585 206.611 842.545 205.238C843.505 203.865 844.09 202.199 844.227 200.448C844.363 198.697 844.045 196.938 843.313 195.393C842.58 193.847 841.465 192.583 840.108 191.759C838.75 190.936 837.211 190.588 835.681 190.761C834.152 190.934 832.702 191.619 831.511 192.73C830.321 193.842 829.443 195.331 828.989 197.01C828.408 199.309 828.641 201.778 829.638 203.881C830.636 205.985 832.317 207.554 834.318 208.25Z" fill="white" stroke="#263238" stroke-width="0.52825" stroke-linecap="round" stroke-linejoin="round"/>
<path d="M838.123 293.871C838.123 293.871 848.634 302.807 854.552 306.517C860.471 310.226 862.362 308.961 868.035 315.143C873.707 321.325 878.521 325.625 879.871 328.097C881.222 330.57 882.843 333.015 883.653 327.479C883.985 324.639 883.66 321.749 882.712 319.097C881.764 316.444 880.226 314.122 878.251 312.361C874.493 309.27 869.361 308.034 869.361 303.931C869.484 302.14 868.991 300.364 867.986 298.983C866.981 297.603 865.545 296.726 863.983 296.541C861.011 296.541 859.071 299.913 853.472 296.541C849.623 293.821 846.465 289.994 844.312 285.441L838.123 293.871Z" fill="white" stroke="#263238" stroke-width="0.48509" stroke-miterlimit="10"/>
<path d="M931.099 244.19C931.099 244.19 919.483 275.972 892.715 290.415" stroke="white" stroke-width="0.345985" stroke-miterlimit="10"/>
<path d="M840.801 270.211C840.801 270.211 824.175 260.685 799.814 212.521" stroke="white" stroke-width="0.345985" stroke-miterlimit="10"/>
<path d="M885.372 234.355C885.372 234.355 867.764 263.889 847.234 273.949" stroke="white" stroke-width="0.345985" stroke-miterlimit="10"/>
</svg>
