<svg width="134" height="114" viewBox="0 0 134 114" fill="none" xmlns="http://www.w3.org/2000/svg">
<path d="M83.0859 100.105V89.7065H50.3135V100.105C50.3083 103.492 49.0811 106.778 46.8304 109.433L45.3955 111.122H88.0039L86.5691 109.433C84.3183 106.778 83.0912 103.492 83.0859 100.105Z" fill="white" stroke="#2E353A" stroke-linecap="round" stroke-linejoin="round"/>
<path d="M48.2979 107.386H85.101C83.7797 105.158 83.0862 102.652 83.0856 100.105V89.7065H50.3133V100.105C50.3126 102.652 49.6191 105.158 48.2979 107.386Z" fill="#25AAE3"/>
<path d="M128.075 0.677612H5.64421C3.07929 0.677612 1 2.62042 1 5.01699V88.6472C1 91.0438 3.07929 92.9866 5.64421 92.9866H128.075C130.64 92.9866 132.719 91.0438 132.719 88.6472V5.01699C132.719 2.62042 130.64 0.677612 128.075 0.677612Z" stroke="#2E353A" stroke-linecap="round" stroke-linejoin="round"/>
<path d="M1 78.6381H132.725V88.6422C132.725 89.793 132.235 90.8968 131.364 91.7106C130.493 92.5244 129.312 92.9815 128.08 92.9815H5.64969C4.41796 92.9815 3.23669 92.5244 2.36574 91.7106C1.49478 90.8968 1.00548 89.793 1.00548 88.6422V78.6381H1Z" fill="white" stroke="#2E353A" stroke-linecap="round" stroke-linejoin="round"/>
<path d="M125.471 6.42419H7V71.6377H125.471V6.42419Z" fill="white" stroke="#2E353A" stroke-linecap="round" stroke-linejoin="round"/>
<path d="M68.8633 85.8123C68.8633 85.3629 68.7207 84.9237 68.4535 84.55C68.1863 84.1764 67.8065 83.8852 67.3622 83.7132C66.9179 83.5413 66.429 83.4963 65.9573 83.5839C65.4856 83.6716 65.0523 83.888 64.7122 84.2057C64.3721 84.5235 64.1405 84.9283 64.0467 85.3691C63.9529 85.8098 64.0011 86.2666 64.1851 86.6818C64.3691 87.097 64.6808 87.4518 65.0807 87.7015C65.4806 87.9511 65.9507 88.0844 66.4317 88.0844C67.0766 88.0844 67.6951 87.845 68.1511 87.4189C68.6071 86.9928 68.8633 86.4149 68.8633 85.8123Z" fill="#2E353A" stroke="#2E353A" stroke-linecap="round" stroke-linejoin="round"/>
<path d="M87.6139 111.142H45V113H87.6139V111.142Z" fill="white" stroke="#2E353A" stroke-linecap="round" stroke-linejoin="round"/>
<path d="M124.428 11.0194H8V16.7353H124.428V11.0194Z" fill="white" stroke="#2E353A" stroke-linecap="round" stroke-linejoin="round"/>
</svg>
