<svg width="134" height="114" viewBox="0 0 134 114" fill="none" xmlns="http://www.w3.org/2000/svg">
<path d="M83.0859 100.105V89.7065H50.3135V100.105C50.3083 103.492 49.0811 106.778 46.8304 109.433L45.3955 111.122H88.0039L86.5691 109.433C84.3183 106.778 83.0912 103.492 83.0859 100.105Z" fill="white" stroke="#2E353A" stroke-linecap="round" stroke-linejoin="round"/>
<path d="M48.2979 107.386H85.101C83.7797 105.158 83.0862 102.652 83.0856 100.105V89.7065H50.3133V100.105C50.3126 102.652 49.6191 105.158 48.2979 107.386Z" fill="#25AAE3"/>
<path d="M128.075 0.677612H5.64421C3.07929 0.677612 1 2.62042 1 5.01699V88.6472C1 91.0438 3.07929 92.9866 5.64421 92.9866H128.075C130.64 92.9866 132.719 91.0438 132.719 88.6472V5.01699C132.719 2.62042 130.64 0.677612 128.075 0.677612Z" stroke="#2E353A" stroke-linecap="round" stroke-linejoin="round"/>
<path d="M1 78.6381H132.725V88.6422C132.725 89.793 132.235 90.8968 131.364 91.7106C130.493 92.5244 129.312 92.9815 128.08 92.9815H5.64969C4.41796 92.9815 3.23669 92.5244 2.36574 91.7106C1.49478 90.8968 1.00548 89.793 1.00548 88.6422V78.6381H1Z" fill="white" stroke="#2E353A" stroke-linecap="round" stroke-linejoin="round"/>
<path d="M125.471 6.42419H7V71.6377H125.471V6.42419Z" fill="white" stroke="#2E353A" stroke-linecap="round" stroke-linejoin="round"/>
<path d="M68.8633 85.8123C68.8633 85.3629 68.7207 84.9237 68.4535 84.55C68.1863 84.1764 67.8065 83.8852 67.3622 83.7132C66.9179 83.5413 66.429 83.4963 65.9573 83.5839C65.4856 83.6716 65.0523 83.888 64.7122 84.2057C64.3721 84.5235 64.1405 84.9283 64.0467 85.3691C63.9529 85.8098 64.0011 86.2666 64.1851 86.6818C64.3691 87.097 64.6808 87.4518 65.0807 87.7015C65.4806 87.9511 65.9507 88.0844 66.4317 88.0844C67.0766 88.0844 67.6951 87.845 68.1511 87.4189C68.6071 86.9928 68.8633 86.4149 68.8633 85.8123Z" fill="#2E353A" stroke="#2E353A" stroke-linecap="round" stroke-linejoin="round"/>
<path d="M87.6139 111.142H45V113H87.6139V111.142Z" fill="white" stroke="#2E353A" stroke-linecap="round" stroke-linejoin="round"/>
<path d="M124.428 11.0194H8V16.7353H124.428V11.0194Z" fill="white" stroke="#2E353A" stroke-linecap="round" stroke-linejoin="round"/>
<path fill-rule="evenodd" clip-rule="evenodd" d="M59.1871 55.0314C59.1871 54.7081 59.3155 54.3981 59.5441 54.1696C59.7726 53.941 60.0826 53.8126 60.4058 53.8126H82.3433C82.6666 53.8126 82.9766 53.941 83.2051 54.1696C83.4337 54.3981 83.5621 54.7081 83.5621 55.0314C83.5621 55.3546 83.4337 55.6646 83.2051 55.8931C82.9766 56.1217 82.6666 56.2501 82.3433 56.2501H60.4058C60.0826 56.2501 59.7726 56.1217 59.5441 55.8931C59.3155 55.6646 59.1871 55.3546 59.1871 55.0314ZM59.1871 45.2814C59.1871 44.9581 59.3155 44.6481 59.5441 44.4196C59.7726 44.191 60.0826 44.0626 60.4058 44.0626H82.3433C82.6666 44.0626 82.9766 44.191 83.2051 44.4196C83.4337 44.6481 83.5621 44.9581 83.5621 45.2814C83.5621 45.6046 83.4337 45.9146 83.2051 46.1431C82.9766 46.3717 82.6666 46.5001 82.3433 46.5001H60.4058C60.0826 46.5001 59.7726 46.3717 59.5441 46.1431C59.3155 45.9146 59.1871 45.6046 59.1871 45.2814ZM59.1871 35.5314C59.1871 35.2081 59.3155 34.8981 59.5441 34.6696C59.7726 34.441 60.0826 34.3126 60.4058 34.3126H82.3433C82.6666 34.3126 82.9766 34.441 83.2051 34.6696C83.4337 34.8981 83.5621 35.2081 83.5621 35.5314C83.5621 35.8546 83.4337 36.1646 83.2051 36.3931C82.9766 36.6217 82.6666 36.7501 82.3433 36.7501H60.4058C60.0826 36.7501 59.7726 36.6217 59.5441 36.3931C59.3155 36.1646 59.1871 35.8546 59.1871 35.5314ZM56.3937 32.231C56.5072 32.3442 56.5973 32.4787 56.6587 32.6267C56.7201 32.7748 56.7518 32.9335 56.7518 33.0939C56.7518 33.2542 56.7201 33.4129 56.6587 33.561C56.5973 33.709 56.5072 33.8435 56.3937 33.9567L52.7375 37.613C52.6243 37.7265 52.4898 37.8165 52.3417 37.878C52.1936 37.9394 52.0349 37.971 51.8746 37.971C51.7143 37.971 51.5555 37.9394 51.4075 37.878C51.2594 37.8165 51.1249 37.7265 51.0117 37.613L49.793 36.3942C49.6796 36.2809 49.5898 36.1464 49.5284 35.9983C49.4671 35.8503 49.4355 35.6916 49.4355 35.5314C49.4355 35.3711 49.4671 35.2124 49.5284 35.0644C49.5898 34.9163 49.6796 34.7818 49.793 34.6685C49.9063 34.5552 50.0408 34.4653 50.1889 34.404C50.3369 34.3426 50.4956 34.3111 50.6558 34.3111C50.8161 34.3111 50.9748 34.3426 51.1228 34.404C51.2709 34.4653 51.4054 34.5552 51.5187 34.6685L51.8746 35.0268L54.668 32.231C54.7812 32.1175 54.9157 32.0274 55.0637 31.966C55.2118 31.9046 55.3705 31.8729 55.5308 31.8729C55.6911 31.8729 55.8499 31.9046 55.9979 31.966C56.146 32.0274 56.2805 32.1175 56.3937 32.231ZM56.3937 41.981C56.5072 42.0942 56.5973 42.2287 56.6587 42.3767C56.7201 42.5248 56.7518 42.6835 56.7518 42.8439C56.7518 43.0042 56.7201 43.1629 56.6587 43.311C56.5973 43.459 56.5072 43.5935 56.3937 43.7067L52.7375 47.363C52.6243 47.4765 52.4898 47.5665 52.3417 47.628C52.1936 47.6894 52.0349 47.721 51.8746 47.721C51.7143 47.721 51.5555 47.6894 51.4075 47.628C51.2594 47.5665 51.1249 47.4765 51.0117 47.363L49.793 46.1442C49.5641 45.9154 49.4355 45.605 49.4355 45.2814C49.4355 44.9577 49.5641 44.6473 49.793 44.4185C50.0218 44.1896 50.3322 44.0611 50.6558 44.0611C50.9795 44.0611 51.2899 44.1896 51.5187 44.4185L51.8746 44.7768L54.668 41.981C54.7812 41.8675 54.9157 41.7774 55.0637 41.716C55.2118 41.6546 55.3705 41.6229 55.5308 41.6229C55.6911 41.6229 55.8499 41.6546 55.9979 41.716C56.146 41.7774 56.2805 41.8675 56.3937 41.981ZM56.3937 51.731C56.5072 51.8442 56.5973 51.9787 56.6587 52.1267C56.7201 52.2748 56.7518 52.4335 56.7518 52.5939C56.7518 52.7542 56.7201 52.9129 56.6587 53.061C56.5973 53.209 56.5072 53.3435 56.3937 53.4567L52.7375 57.113C52.6243 57.2265 52.4898 57.3165 52.3417 57.378C52.1936 57.4394 52.0349 57.471 51.8746 57.471C51.7143 57.471 51.5555 57.4394 51.4075 57.378C51.2594 57.3165 51.1249 57.2265 51.0117 57.113L49.793 55.8942C49.5641 55.6654 49.4355 55.355 49.4355 55.0314C49.4355 54.7077 49.5641 54.3973 49.793 54.1685C50.0218 53.9396 50.3322 53.8111 50.6558 53.8111C50.9795 53.8111 51.2899 53.9396 51.5187 54.1685L51.8746 54.5268L54.668 51.731C54.7812 51.6175 54.9157 51.5274 55.0637 51.466C55.2118 51.4046 55.3705 51.3729 55.5308 51.3729C55.6911 51.3729 55.8499 51.4046 55.9979 51.466C56.146 51.5274 56.2805 51.6175 56.3937 51.731Z" fill="#25AAE3"/>
</svg>
