<svg width="134" height="114" viewBox="0 0 134 114" fill="none" xmlns="http://www.w3.org/2000/svg">
<path d="M83.249 100.105V89.7065H50.4766V100.105C50.4713 103.492 49.2442 106.778 46.9935 109.433L45.5586 111.122H88.167L86.7321 109.433C84.4814 106.778 83.2543 103.492 83.249 100.105Z" fill="white" stroke="#2E353A" stroke-linecap="round" stroke-linejoin="round"/>
<path d="M48.4609 107.386H85.2641C83.9428 105.158 83.2493 102.652 83.2487 100.105V89.7065H50.4764V100.105C50.4757 102.652 49.7822 105.158 48.4609 107.386Z" fill="#25AAE3"/>
<path d="M128.075 0.677612H5.64421C3.07929 0.677612 1 2.62042 1 5.01699V88.6472C1 91.0438 3.07929 92.9866 5.64421 92.9866H128.075C130.64 92.9866 132.719 91.0438 132.719 88.6472V5.01699C132.719 2.62042 130.64 0.677612 128.075 0.677612Z" stroke="#2E353A" stroke-linecap="round" stroke-linejoin="round"/>
<path d="M1 78.6381H132.725V88.6422C132.725 89.793 132.235 90.8968 131.364 91.7106C130.493 92.5244 129.312 92.9815 128.08 92.9815H5.64969C4.41796 92.9815 3.23669 92.5244 2.36574 91.7106C1.49478 90.8968 1.00548 89.793 1.00548 88.6422V78.6381H1Z" fill="white" stroke="#2E353A" stroke-linecap="round" stroke-linejoin="round"/>
<path d="M126.098 6.42419H7.62695V71.6377H126.098V6.42419Z" fill="white" stroke="#2E353A" stroke-linecap="round" stroke-linejoin="round"/>
<path d="M69.294 85.8123C69.294 85.3629 69.1514 84.9237 68.8842 84.55C68.617 84.1764 68.2372 83.8852 67.7929 83.7132C67.3485 83.5413 66.8596 83.4963 66.3879 83.5839C65.9162 83.6716 65.483 83.888 65.1429 84.2057C64.8028 84.5235 64.5712 84.9283 64.4774 85.3691C64.3836 85.8098 64.4317 86.2666 64.6158 86.6818C64.7998 87.097 65.1115 87.4518 65.5114 87.7015C65.9112 87.9511 66.3814 88.0844 66.8623 88.0844C67.5072 88.0844 68.1257 87.845 68.5818 87.4189C69.0378 86.9928 69.294 86.4149 69.294 85.8123Z" fill="#2E353A" stroke="#2E353A" stroke-linecap="round" stroke-linejoin="round"/>
<path d="M88.1725 111.142H45.5586V113H88.1725V111.142Z" fill="white" stroke="#2E353A" stroke-linecap="round" stroke-linejoin="round"/>
<path d="M124.986 11.0194H8.55762V16.7353H124.986V11.0194Z" fill="white" stroke="#2E353A" stroke-linecap="round" stroke-linejoin="round"/>
<path d="M87.5431 31.6969L81.3031 25.4569C81.1582 25.3121 80.9862 25.1972 80.797 25.1188C80.6077 25.0404 80.4048 25 80.2 25C79.9951 25 79.7922 25.0404 79.603 25.1188C79.4137 25.1972 79.2417 25.3121 79.0968 25.4569L60.3769 44.1769C60.232 44.3218 60.1171 44.4938 60.0387 44.683C59.9603 44.8723 59.92 45.0752 59.92 45.28V51.52C59.92 51.9338 60.0843 52.3305 60.3769 52.6231C60.6695 52.9157 61.0662 53.08 61.48 53.08H67.72C67.9248 53.08 68.1277 53.0397 68.317 52.9613C68.5062 52.8829 68.6782 52.768 68.8231 52.6231L87.5431 33.9032C87.6879 33.7583 87.8028 33.5863 87.8812 33.397C87.9596 33.2078 88 33.0049 88 32.8C88 32.5952 87.9596 32.3923 87.8812 32.203C87.8028 32.0138 87.6879 31.8418 87.5431 31.6969ZM67.0739 49.96H63.04V45.9263L75.52 33.4463L79.5537 37.48L67.0739 49.96ZM81.76 35.2738L77.7262 31.24L80.2 28.7663L84.2339 32.8L81.76 35.2738ZM86.4399 43.72V60.88C86.439 61.7072 86.11 62.5002 85.5251 63.0851C84.9402 63.6701 84.1471 63.9991 83.32 64H52.12C51.2928 63.9991 50.4998 63.6701 49.9149 63.0851C49.3299 62.5002 49.0009 61.7072 49 60.88V29.6801C49.0009 28.8529 49.3299 28.0598 49.9149 27.4749C50.4998 26.89 51.2928 26.561 52.12 26.5601H69.28C69.6937 26.5601 70.0905 26.7244 70.3831 27.017C70.6756 27.3095 70.84 27.7063 70.84 28.1201C70.84 28.5338 70.6756 28.9306 70.3831 29.2231C70.0905 29.5157 69.6937 29.6801 69.28 29.6801H52.12V60.88H83.32V43.72C83.32 43.3063 83.4843 42.9095 83.7769 42.6169C84.0694 42.3244 84.4662 42.16 84.8799 42.16C85.2937 42.16 85.6905 42.3244 85.983 42.6169C86.2756 42.9095 86.4399 43.3063 86.4399 43.72Z" fill="#25AAE3"/>
</svg>
