<svg width="134" height="114" viewBox="0 0 134 114" fill="none" xmlns="http://www.w3.org/2000/svg">
<path d="M83.249 100.105V89.7065H50.4766V100.105C50.4713 103.492 49.2442 106.778 46.9935 109.433L45.5586 111.122H88.167L86.7321 109.433C84.4814 106.778 83.2543 103.492 83.249 100.105Z" fill="white" stroke="#2E353A" stroke-linecap="round" stroke-linejoin="round"/>
<path d="M48.4609 107.386H85.2641C83.9428 105.158 83.2493 102.652 83.2487 100.105V89.7065H50.4764V100.105C50.4757 102.652 49.7822 105.158 48.4609 107.386Z" fill="#25AAE3"/>
<path d="M128.075 0.677612H5.64421C3.07929 0.677612 1 2.62042 1 5.01699V88.6472C1 91.0438 3.07929 92.9866 5.64421 92.9866H128.075C130.64 92.9866 132.719 91.0438 132.719 88.6472V5.01699C132.719 2.62042 130.64 0.677612 128.075 0.677612Z" stroke="#2E353A" stroke-linecap="round" stroke-linejoin="round"/>
<path d="M1 78.6381H132.725V88.6422C132.725 89.793 132.235 90.8968 131.364 91.7106C130.493 92.5244 129.312 92.9815 128.08 92.9815H5.64969C4.41796 92.9815 3.23669 92.5244 2.36574 91.7106C1.49478 90.8968 1.00548 89.793 1.00548 88.6422V78.6381H1Z" fill="white" stroke="#2E353A" stroke-linecap="round" stroke-linejoin="round"/>
<path d="M126.471 6.42419H8V71.6377H126.471V6.42419Z" fill="white" stroke="#2E353A" stroke-linecap="round" stroke-linejoin="round"/>
<path d="M69.294 85.8123C69.294 85.3629 69.1514 84.9237 68.8842 84.55C68.617 84.1764 68.2372 83.8852 67.7929 83.7132C67.3485 83.5413 66.8596 83.4963 66.3879 83.5839C65.9162 83.6716 65.483 83.888 65.1429 84.2057C64.8028 84.5235 64.5712 84.9283 64.4774 85.3691C64.3836 85.8098 64.4317 86.2666 64.6158 86.6818C64.7998 87.097 65.1115 87.4518 65.5114 87.7015C65.9112 87.9511 66.3814 88.0844 66.8623 88.0844C67.5072 88.0844 68.1257 87.845 68.5818 87.4189C69.0378 86.9928 69.294 86.4149 69.294 85.8123Z" fill="#2E353A" stroke="#2E353A" stroke-linecap="round" stroke-linejoin="round"/>
<path d="M88.1725 111.142H45.5586V113H88.1725V111.142Z" fill="white" stroke="#2E353A" stroke-linecap="round" stroke-linejoin="round"/>
<path d="M124.986 11.0194H8.55762V16.7353H124.986V11.0194Z" fill="white" stroke="#2E353A" stroke-linecap="round" stroke-linejoin="round"/>
<path d="M79.5 30.25H53.5C51.7125 30.25 50.25 31.7125 50.25 33.5V62.75L56.75 56.25H79.5C81.2875 56.25 82.75 54.7875 82.75 53V33.5C82.75 31.7125 81.2875 30.25 79.5 30.25ZM79.5 53H55.4012L53.5 54.9013V33.5H79.5V53ZM64.875 35.125H68.125V44.875H64.875V35.125ZM64.875 48.125H68.125V51.375H64.875V48.125Z" fill="#25AAE3"/>
</svg>
