<svg width="134" height="114" viewBox="0 0 134 114" fill="none" xmlns="http://www.w3.org/2000/svg">
<path d="M83.0859 100.105V89.7065H50.3135V100.105C50.3083 103.492 49.0811 106.778 46.8304 109.433L45.3955 111.122H88.0039L86.5691 109.433C84.3183 106.778 83.0912 103.492 83.0859 100.105Z" fill="white" stroke="#2E353A" stroke-linecap="round" stroke-linejoin="round"/>
<path d="M48.2979 107.386H85.101C83.7797 105.158 83.0862 102.652 83.0856 100.105V89.7065H50.3133V100.105C50.3126 102.652 49.6191 105.158 48.2979 107.386Z" fill="#25AAE3"/>
<path d="M127.912 0.677612H5.48113C2.9162 0.677612 0.836914 2.62042 0.836914 5.01699V88.6472C0.836914 91.0438 2.9162 92.9866 5.48113 92.9866H127.912C130.477 92.9866 132.556 91.0438 132.556 88.6472V5.01699C132.556 2.62042 130.477 0.677612 127.912 0.677612Z" stroke="#2E353A" stroke-linecap="round" stroke-linejoin="round"/>
<path d="M0.836914 78.6381H132.562V88.6422C132.562 89.793 132.072 90.8968 131.201 91.7106C130.33 92.5244 129.149 92.9815 127.917 92.9815H5.4866C4.25488 92.9815 3.07361 92.5244 2.20265 91.7106C1.33169 90.8968 0.842392 89.793 0.842392 88.6422V78.6381H0.836914Z" fill="white" stroke="#2E353A" stroke-linecap="round" stroke-linejoin="round"/>
<path d="M125.471 6.42419H7V71.6377H125.471V6.42419Z" fill="white" stroke="#2E353A" stroke-linecap="round" stroke-linejoin="round"/>
<path d="M69.1309 85.8123C69.1309 85.3629 68.9883 84.9237 68.7211 84.55C68.4539 84.1764 68.0741 83.8852 67.6298 83.7132C67.1855 83.5413 66.6965 83.4963 66.2248 83.5839C65.7531 83.6716 65.3199 83.888 64.9798 84.2057C64.6397 84.5235 64.4081 84.9283 64.3143 85.3691C64.2205 85.8098 64.2686 86.2666 64.4527 86.6818C64.6367 87.097 64.9484 87.4518 65.3483 87.7015C65.7482 87.9511 66.2183 88.0844 66.6992 88.0844C67.3441 88.0844 67.9626 87.845 68.4187 87.4189C68.8747 86.9928 69.1309 86.4149 69.1309 85.8123Z" fill="#2E353A" stroke="#2E353A" stroke-linecap="round" stroke-linejoin="round"/>
<path d="M88.0094 111.142H45.3955V113H88.0094V111.142Z" fill="white" stroke="#2E353A" stroke-linecap="round" stroke-linejoin="round"/>
<path d="M124.823 11.0194H8.39453V16.7353H124.823V11.0194Z" fill="white" stroke="#2E353A" stroke-linecap="round" stroke-linejoin="round"/>
</svg>
